<?xml version="1.0" encoding="utf-8"?>
<!-- Generator: Adobe Illustrator 19.0.0, SVG Export Plug-In . SVG Version: 6.00 Build 0)  -->
<svg version="1.1" id="圖層_1" xmlns="http://www.w3.org/2000/svg" xmlns:xlink="http://www.w3.org/1999/xlink" x="0px" y="0px"
	 viewBox="-325.2 373.8 640 55" style="enable-background:new -325.2 373.8 640 55;" xml:space="preserve">
<style type="text/css">
	.st0{fill:#C91620;}
	.st1{fill:none;stroke:#FFFFFF;stroke-width:4;}
	.st2{fill:#FFFFFF;}
</style>
<g id="Banner_底圖">
</g>
<g id="_x31_949_x7E_1988">
</g>
<g id="_x31_991">
</g>
<g id="_x32_012_x7E_2016">
</g>
<g id="圖層_1_1_">
</g>
<g id="圖層_3">
</g>
<g id="圖層_7">
</g>
<g id="banner_x5F_grid">
</g>
<g id="XMLID_1929_">
	<g>
		<g>
			<path class="st0" d="M68.9,402.1H73c0,0.3,0,0.6,0,1h9.3v2.9h-8.9c1,1.2,4.1,1.9,9.5,2.1c-0.3,0.5-0.6,1.1-1,2.1
				c-0.3,0.7-0.6,1.2-0.7,1.6c-4.9-0.5-8.3-1.5-10.2-3.2c-1.7,1.4-5.1,2.6-10.3,3.4c-0.1-0.3-0.4-0.8-0.8-1.6
				c-0.4-0.9-0.7-1.5-0.9-1.9c5.1-0.3,8-1.1,8.9-2.4h-8.2v-2.9h9c0-0.1,0-0.3,0.1-0.5C68.9,402.3,68.9,402.2,68.9,402.1z
				 M59.9,390.8h5c-0.2-0.3-0.5-0.8-0.9-1.4c-0.2-0.3-0.3-0.6-0.4-0.7l4.3-0.5c0.5,0.7,1,1.6,1.5,2.5h3.3c0.2-0.3,0.5-0.7,0.8-1.3
				c0.3-0.6,0.6-1.1,0.7-1.3l4.3,0.5c-0.1,0.1-0.2,0.3-0.4,0.6c-0.1,0.2-0.5,0.7-1,1.5h5.1v2.9H73v1.1h7.9v2.9H73v1h9.6v3H59.4v-3
				h9.5v-1h-7.5v-2.9h7.5v-1.1h-9V390.8z"/>
			<path class="st0" d="M84.5,392.9h2.2c0.2-1.4,0.4-2.9,0.6-4.5l3.7,0.3c-0.1,0.3-0.2,0.8-0.3,1.6c-0.2,1.2-0.3,2.1-0.4,2.6h4.9
				v3.2c-0.3,3.8-1,6.9-2.1,9.2l2.1,1.8l-2.3,3l-1.9-1.8c-1.3,1.2-2.7,2.4-4.2,3.6c-0.7-0.8-1.6-1.8-2.5-2.8
				c1.8-1.1,3.1-2.2,4.1-3.3c-0.3-0.3-0.6-0.6-0.9-0.9c-0.1,0.2-0.2,0.4-0.2,0.5l-3-1.5c0.7-2.5,1.3-5,1.8-7.4h-1.6V392.9z
				 M89.6,396.6c-0.3,1.8-0.7,3.4-1.1,5c0.7,0.5,1.3,0.9,1.9,1.5c0.7-1.6,1.1-3.7,1.3-6.4H89.6z M107.8,389.3v3.7l-3.7,4.6v0.9h4.1
				v3.8h-4.1v5.6c0.1,2.3-1.2,3.5-3.7,3.6c-0.5,0-1.1,0-2,0.1c-0.7,0-1.3,0-1.7,0c-0.1-1-0.4-2.2-0.8-3.7c0.8,0.1,1.7,0.1,2.5,0.1
				c1.1,0.1,1.6-0.4,1.6-1.5v-4.2h-4.6v-3.8h4.6v-1.9l2.9-3.6h-6.6v-3.7H107.8z"/>
			<path class="st0" d="M132.6,406.5c0,3.1-1.4,4.7-4.3,4.8c-1.2,0.1-2.7,0.1-4.5,0.1c-0.1-0.3-0.1-0.7-0.2-1.2
				c-0.1-0.8-0.3-1.7-0.6-2.6c0.8,0.1,2,0.1,3.5,0.1c1.4,0.1,2.1-0.6,2.1-2.1c0-0.7,0-2,0-4.1c0.1-2.7,0.1-4.7,0.1-5.8h-3.4
				c-0.4,1-0.8,2.1-1.4,3c-1-0.5-2-1.1-3-1.7v14.2h-3.8v-1.4h-2.8v1.5h-3.8v-19.3h2.7c0.3-1.3,0.6-2.5,0.7-3.6l4.3,0.5
				c-0.1,0.2-0.1,0.5-0.2,0.8c-0.1,0.7-0.3,1.5-0.6,2.3h3.5v4.1c1.3-2.8,2.3-5.4,2.9-7.8l3.9,0.9c-0.1,0.3-0.2,0.8-0.4,1.4
				c-0.2,0.7-0.4,1.1-0.5,1.5h6C132.7,399.2,132.6,404,132.6,406.5z M114.3,395.8v3.4h2.8v-3.4H114.3z M114.3,402.9v3.4h2.8v-3.4
				H114.3z M124.9,398.4c0.6,0.7,1.4,1.8,2.5,3.3c0.5,0.7,0.8,1.1,1.1,1.5l-3.3,2.1c-1.4-2.1-2.5-3.7-3.4-5L124.9,398.4z"/>
			<path class="st0" d="M134.9,397.7h23.8v4.4h-23.8V397.7z"/>
			<path class="st0" d="M160.6,397h9c0.1-1,0.1-2.2,0.1-3.6H162v-3.8h20.1v3.8h-8c0,0.5,0,1.1-0.1,1.9c0,0.8,0,1.4,0,1.8h9.5v3.8
				h-9.1c1.3,3.5,4.5,5.7,9.6,6.7c-0.8,1.3-1.6,2.6-2.3,3.9c-5.1-1.6-8.3-3.9-9.6-7c-1.2,2.9-4.4,5.4-9.5,7.3
				c-0.8-1.4-1.7-2.6-2.4-3.5c5.5-1.9,8.5-4.4,9.1-7.4h-8.6V397z"/>
			<path class="st0" d="M191.4,411.7h-3.5v-7.3c-0.6,0.5-1.2,1-1.8,1.4c-0.3-1.4-0.6-2.7-0.9-3.9c2.4-2.1,4.3-4.4,5.8-6.8l2,1.4
				c1.6-2.1,2.5-4.8,2.9-8l3.6,0.6c-0.2,1.1-0.4,2.1-0.7,2.9c0.2,0.1,0.5,0.3,0.9,0.5c0.6,0.4,1.1,0.7,1.4,0.9l-1.9,3.1
				c-0.2-0.1-0.5-0.4-1-0.8c-0.2-0.2-0.4-0.3-0.5-0.4c-0.7,1.6-1.5,3.1-2.6,4.5c-0.1-0.1-0.4-0.3-0.7-0.5c-0.6-0.4-1-0.7-1.3-1
				c-0.6,0.8-1.2,1.7-1.8,2.4v8.3c2-1.9,2.8-4.8,2.5-8.6h3.7c0,0.3,0,0.8-0.1,1.5c0,1.4-0.1,2.5-0.2,3.1c0.6,1,1.3,1.8,2.1,2.2v-7.8
				h1.5c-0.2-0.1-0.5-0.3-0.8-0.5c-0.7-0.5-1.2-0.8-1.6-1c2.1-2.3,3.5-5.4,4-9.5l3.6,0.7c-0.1,0.3-0.2,0.8-0.3,1.5
				c-0.2,0.8-0.4,1.5-0.5,1.9c0.2,0.2,0.5,0.5,0.8,1c1.5,1.6,2.5,2.8,3.1,3.5l-2.7,2.3c-0.7-1-1.6-2.1-2.5-3.3
				c-0.6,1.2-1.3,2.3-2.1,3.4h1.1v1.9h5.3v3.3h-5.3v3.4c1,0.1,2.8,0,5.2-0.1c0.4,0,0.7,0,1,0c-0.1,0.4-0.2,0.9-0.4,1.5
				c-0.2,0.9-0.3,1.6-0.4,2c-3.5,0-5.5,0-6.2-0.1c-2.7-0.1-4.7-0.9-6.1-2.5c-0.5,0.9-1.2,2-2.1,3.1c-0.8-0.8-1.7-1.7-2.6-2.6V411.7z
				 M190.7,388.4l3,2.1c-2,2.4-4.1,4.8-6.5,7c-0.1-0.2-0.2-0.5-0.4-0.9c-0.3-0.9-0.7-1.9-1.2-2.9
				C187.4,392.5,189.1,390.7,190.7,388.4z"/>
			<path class="st0" d="M221,411.3h-3.7v-11.1h-1.5c0,5.1-0.8,9.1-2.3,11.8c-0.3-0.3-0.7-0.8-1.5-1.6c-0.8-0.8-1.3-1.3-1.5-1.5
				c1-1.8,1.5-5,1.5-9.5v-9.7c4-0.3,7.1-0.6,9.4-1l1.3,3.6c-1.8,0.3-4.1,0.5-6.8,0.7v3.4h5.5c1.7-2.6,2.9-5.4,3.6-8.3l3.8,0.6
				c-0.3,0.9-0.6,1.8-0.9,2.5h6.5v3.4l-1,4.1l-3.5-0.6l0.8-3.4h-4.3c-0.1,0.1-0.1,0.2-0.2,0.4c-0.1,0.1-0.2,0.5-0.5,1h3.8
				c0,0.2,0,0.5,0,1c-0.1,0.7-0.1,1.2-0.1,1.6c0.5,3.8,2.3,7,5.3,9.6c-0.4,0.5-1,1.4-1.9,2.7c-0.2,0.3-0.4,0.6-0.5,0.8
				c-2.4-2.7-3.9-5.1-4.5-7.3c-0.5,2.5-2,5-4.4,7.4c-0.1-0.2-0.3-0.5-0.6-0.8c-0.8-1-1.4-1.8-1.9-2.2V411.3z M225.6,399.1
				c0.1-0.6,0.1-1.6,0.1-2.8c-0.4,0.8-0.9,1.7-1.5,2.6c-0.1-0.1-0.2-0.2-0.3-0.3c-0.6-0.5-1.1-0.8-1.5-1v2.5H221v8.5
				C223.9,406.1,225.4,402.9,225.6,399.1z"/>
			<path class="st0" d="M245.4,395.5v9.4h-1.6v3h1.6v3h-5.7v1h-3.1v-22.7h9v3.3h-1.8v2.9H245.4z M239.8,392.6v2.9h1.3v-2.9H239.8z
				 M242.7,398.6h-2.9v3.1h2.9V398.6z M239.8,404.9v3h1.3v-3H239.8z M248.1,388.3l3.6,0.4c-0.2,0.7-0.4,1.2-0.6,1.8h8.5v3h-10
				c-0.1,0.1-0.2,0.2-0.3,0.5c-0.1,0.2-0.2,0.4-0.3,0.5h9.1v6.9h-11.3V396l-2.1-1.6C246.5,392.5,247.6,390.5,248.1,388.3z
				 M246,411.8v-9.5h6.1v9.5h-2.5v-1.1h-1.1v1.1H246z M248.5,405.1v3h1.1v-3H248.5z M250.1,397.2v1.3h4.7v-1.3H250.1z M252.9,411.8
				v-9.5h6.1v9.5h-2.5v-1.1h-1.1v1.1H252.9z M255.3,405.1v3.1h1.1v-3.1H255.3z"/>
			<path class="st0" d="M262,389.1h10.4v8.7h-6.9v13.9H262V389.1z M265.4,391.7v0.9h3.5v-0.9H265.4z M265.4,395.6h3.5v-1h-3.5V395.6
				z M266.9,398.8h12.2v2.7h-1.7v1.7h2.4v2.8h-2.4v2.6h1.9c0.9,0,1.4-0.5,1.4-1.4v-9.5h-6.8v-8.7h10.3v18.8c0.1,2.3-1,3.5-3.3,3.6
				c-0.8,0.1-1.9,0.1-3.3,0.1c0-0.1-0.1-0.4-0.2-0.8c-0.1-0.3-0.1-0.6-0.2-0.8h-2.9v-4h-2.4c0,1.6-0.9,3.1-2.7,4.6
				c-0.1-0.1-0.4-0.2-0.7-0.5c-1-0.7-1.7-1-2.2-1.2c1.4-1.1,2.2-2.1,2.4-2.9h-2.2v-2.8h2.4c0-0.5,0-1.1,0-1.7h-1.8V398.8z
				 M271.9,401.5c0,0.6,0,1.1,0,1.7h2.2v-1.7H271.9z M277.1,391.7v0.9h3.5v-0.9H277.1z M277.1,394.6v1h3.5v-1H277.1z"/>
			<path class="st0" d="M288.8,405.9l-2.7-1.5c0.7-2.9,1.3-5.7,1.9-8.5h-1.5v-3.5h2.1c0.1-1.4,0.3-2.7,0.5-4l3.4,0.3l-0.7,3.7h4.8
				v3.4c-0.3,4.4-0.9,7.6-2.1,9.7l2.1,2.1l-2.6,2.5l-1.6-1.6c-1,1-2.2,2.1-3.8,3.3c-0.3-0.3-0.7-0.9-1.5-1.7c-0.5-0.5-0.8-0.8-1-1.1
				c1.6-1,2.8-2.1,3.8-3.3l-0.9-0.8C289,405.3,288.9,405.6,288.8,405.9z M293,396h-1.9c-0.3,1.8-0.6,3.6-1.1,5.5l1.7,1.6
				C292.4,401.2,292.8,398.9,293,396z M306.7,391.4c1.1,1.8,2.4,4.1,3.9,6.9l-3.3,1.8c-0.1-0.1-0.2-0.3-0.3-0.6
				c-0.1-0.2-0.2-0.5-0.5-1c-4.4,0.3-7.6,0.5-9.6,0.8l-0.3-3.5c0.3,0,0.7,0,1.2,0c0.3-0.7,0.9-2.1,1.7-4c0.8-1.8,1.3-2.9,1.6-3.5
				l3.9,1.7c-0.4,0.5-1,1.6-2,3.2c-0.7,1.1-1.1,1.9-1.5,2.4c1.2,0,2.3-0.1,3.4-0.2c-0.1-0.3-0.3-0.6-0.6-1.2
				c-0.3-0.6-0.5-1.1-0.7-1.5L306.7,391.4z M300.7,411.7H297v-11.1h12v11.1h-3.7v-1.2h-4.6V411.7z M300.7,404.1v3.1h4.6v-3.1H300.7z
				"/>
		</g>
		<g>
			<path class="st1" d="M68.9,402.1H73c0,0.3,0,0.6,0,1h9.3v2.9h-8.9c1,1.2,4.1,1.9,9.5,2.1c-0.3,0.5-0.6,1.1-1,2.1
				c-0.3,0.7-0.6,1.2-0.7,1.6c-4.9-0.5-8.3-1.5-10.2-3.2c-1.7,1.4-5.1,2.6-10.3,3.4c-0.1-0.3-0.4-0.8-0.8-1.6
				c-0.4-0.9-0.7-1.5-0.9-1.9c5.1-0.3,8-1.1,8.9-2.4h-8.2v-2.9h9c0-0.1,0-0.3,0.1-0.5C68.9,402.3,68.9,402.2,68.9,402.1z
				 M59.9,390.8h5c-0.2-0.3-0.5-0.8-0.9-1.4c-0.2-0.3-0.3-0.6-0.4-0.7l4.3-0.5c0.5,0.7,1,1.6,1.5,2.5h3.3c0.2-0.3,0.5-0.7,0.8-1.3
				c0.3-0.6,0.6-1.1,0.7-1.3l4.3,0.5c-0.1,0.1-0.2,0.3-0.4,0.6c-0.1,0.2-0.5,0.7-1,1.5h5.1v2.9H73v1.1h7.9v2.9H73v1h9.6v3H59.4v-3
				h9.5v-1h-7.5v-2.9h7.5v-1.1h-9V390.8z"/>
			<path class="st1" d="M84.5,392.9h2.2c0.2-1.4,0.4-2.9,0.6-4.5l3.7,0.3c-0.1,0.3-0.2,0.8-0.3,1.6c-0.2,1.2-0.3,2.1-0.4,2.6h4.9
				v3.2c-0.3,3.8-1,6.9-2.1,9.2l2.1,1.8l-2.3,3l-1.9-1.8c-1.3,1.2-2.7,2.4-4.2,3.6c-0.7-0.8-1.6-1.8-2.5-2.8
				c1.8-1.1,3.1-2.2,4.1-3.3c-0.3-0.3-0.6-0.6-0.9-0.9c-0.1,0.2-0.2,0.4-0.2,0.5l-3-1.5c0.7-2.5,1.3-5,1.8-7.4h-1.6V392.9z
				 M89.6,396.6c-0.3,1.8-0.7,3.4-1.1,5c0.7,0.5,1.3,0.9,1.9,1.5c0.7-1.6,1.1-3.7,1.3-6.4H89.6z M107.8,389.3v3.7l-3.7,4.6v0.9h4.1
				v3.8h-4.1v5.6c0.1,2.3-1.2,3.5-3.7,3.6c-0.5,0-1.1,0-2,0.1c-0.7,0-1.3,0-1.7,0c-0.1-1-0.4-2.2-0.8-3.7c0.8,0.1,1.7,0.1,2.5,0.1
				c1.1,0.1,1.6-0.4,1.6-1.5v-4.2h-4.6v-3.8h4.6v-1.9l2.9-3.6h-6.6v-3.7H107.8z"/>
			<path class="st1" d="M132.6,406.5c0,3.1-1.4,4.7-4.3,4.8c-1.2,0.1-2.7,0.1-4.5,0.1c-0.1-0.3-0.1-0.7-0.2-1.2
				c-0.1-0.8-0.3-1.7-0.6-2.6c0.8,0.1,2,0.1,3.5,0.1c1.4,0.1,2.1-0.6,2.1-2.1c0-0.7,0-2,0-4.1c0.1-2.7,0.1-4.7,0.1-5.8h-3.4
				c-0.4,1-0.8,2.1-1.4,3c-1-0.5-2-1.1-3-1.7v14.2h-3.8v-1.4h-2.8v1.5h-3.8v-19.3h2.7c0.3-1.3,0.6-2.5,0.7-3.6l4.3,0.5
				c-0.1,0.2-0.1,0.5-0.2,0.8c-0.1,0.7-0.3,1.5-0.6,2.3h3.5v4.1c1.3-2.8,2.3-5.4,2.9-7.8l3.9,0.9c-0.1,0.3-0.2,0.8-0.4,1.4
				c-0.2,0.7-0.4,1.1-0.5,1.5h6C132.7,399.2,132.6,404,132.6,406.5z M114.3,395.8v3.4h2.8v-3.4H114.3z M114.3,402.9v3.4h2.8v-3.4
				H114.3z M124.9,398.4c0.6,0.7,1.4,1.8,2.5,3.3c0.5,0.7,0.8,1.1,1.1,1.5l-3.3,2.1c-1.4-2.1-2.5-3.7-3.4-5L124.9,398.4z"/>
			<path class="st1" d="M134.9,397.7h23.8v4.4h-23.8V397.7z"/>
			<path class="st1" d="M160.6,397h9c0.1-1,0.1-2.2,0.1-3.6H162v-3.8h20.1v3.8h-8c0,0.5,0,1.1-0.1,1.9c0,0.8,0,1.4,0,1.8h9.5v3.8
				h-9.1c1.3,3.5,4.5,5.7,9.6,6.7c-0.8,1.3-1.6,2.6-2.3,3.9c-5.1-1.6-8.3-3.9-9.6-7c-1.2,2.9-4.4,5.4-9.5,7.3
				c-0.8-1.4-1.7-2.6-2.4-3.5c5.5-1.9,8.5-4.4,9.1-7.4h-8.6V397z"/>
			<path class="st1" d="M191.4,411.7h-3.5v-7.3c-0.6,0.5-1.2,1-1.8,1.4c-0.3-1.4-0.6-2.7-0.9-3.9c2.4-2.1,4.3-4.4,5.8-6.8l2,1.4
				c1.6-2.1,2.5-4.8,2.9-8l3.6,0.6c-0.2,1.1-0.4,2.1-0.7,2.9c0.2,0.1,0.5,0.3,0.9,0.5c0.6,0.4,1.1,0.7,1.4,0.9l-1.9,3.1
				c-0.2-0.1-0.5-0.4-1-0.8c-0.2-0.2-0.4-0.3-0.5-0.4c-0.7,1.6-1.5,3.1-2.6,4.5c-0.1-0.1-0.4-0.3-0.7-0.5c-0.6-0.4-1-0.7-1.3-1
				c-0.6,0.8-1.2,1.7-1.8,2.4v8.3c2-1.9,2.8-4.8,2.5-8.6h3.7c0,0.3,0,0.8-0.1,1.5c0,1.4-0.1,2.5-0.2,3.1c0.6,1,1.3,1.8,2.1,2.2v-7.8
				h1.5c-0.2-0.1-0.5-0.3-0.8-0.5c-0.7-0.5-1.2-0.8-1.6-1c2.1-2.3,3.5-5.4,4-9.5l3.6,0.7c-0.1,0.3-0.2,0.8-0.3,1.5
				c-0.2,0.8-0.4,1.5-0.5,1.9c0.2,0.2,0.5,0.5,0.8,1c1.5,1.6,2.5,2.8,3.1,3.5l-2.7,2.3c-0.7-1-1.6-2.1-2.5-3.3
				c-0.6,1.2-1.3,2.3-2.1,3.4h1.1v1.9h5.3v3.3h-5.3v3.4c1,0.1,2.8,0,5.2-0.1c0.4,0,0.7,0,1,0c-0.1,0.4-0.2,0.9-0.4,1.5
				c-0.2,0.9-0.3,1.6-0.4,2c-3.5,0-5.5,0-6.2-0.1c-2.7-0.1-4.7-0.9-6.1-2.5c-0.5,0.9-1.2,2-2.1,3.1c-0.8-0.8-1.7-1.7-2.6-2.6V411.7z
				 M190.7,388.4l3,2.1c-2,2.4-4.1,4.8-6.5,7c-0.1-0.2-0.2-0.5-0.4-0.9c-0.3-0.9-0.7-1.9-1.2-2.9
				C187.4,392.5,189.1,390.7,190.7,388.4z"/>
			<path class="st1" d="M221,411.3h-3.7v-11.1h-1.5c0,5.1-0.8,9.1-2.3,11.8c-0.3-0.3-0.7-0.8-1.5-1.6c-0.8-0.8-1.3-1.3-1.5-1.5
				c1-1.8,1.5-5,1.5-9.5v-9.7c4-0.3,7.1-0.6,9.4-1l1.3,3.6c-1.8,0.3-4.1,0.5-6.8,0.7v3.4h5.5c1.7-2.6,2.9-5.4,3.6-8.3l3.8,0.6
				c-0.3,0.9-0.6,1.8-0.9,2.5h6.5v3.4l-1,4.1l-3.5-0.6l0.8-3.4h-4.3c-0.1,0.1-0.1,0.2-0.2,0.4c-0.1,0.1-0.2,0.5-0.5,1h3.8
				c0,0.2,0,0.5,0,1c-0.1,0.7-0.1,1.2-0.1,1.6c0.5,3.8,2.3,7,5.3,9.6c-0.4,0.5-1,1.4-1.9,2.7c-0.2,0.3-0.4,0.6-0.5,0.8
				c-2.4-2.7-3.9-5.1-4.5-7.3c-0.5,2.5-2,5-4.4,7.4c-0.1-0.2-0.3-0.5-0.6-0.8c-0.8-1-1.4-1.8-1.9-2.2V411.3z M225.6,399.1
				c0.1-0.6,0.1-1.6,0.1-2.8c-0.4,0.8-0.9,1.7-1.5,2.6c-0.1-0.1-0.2-0.2-0.3-0.3c-0.6-0.5-1.1-0.8-1.5-1v2.5H221v8.5
				C223.9,406.1,225.4,402.9,225.6,399.1z"/>
			<path class="st1" d="M245.4,395.5v9.4h-1.6v3h1.6v3h-5.7v1h-3.1v-22.7h9v3.3h-1.8v2.9H245.4z M239.8,392.6v2.9h1.3v-2.9H239.8z
				 M242.7,398.6h-2.9v3.1h2.9V398.6z M239.8,404.9v3h1.3v-3H239.8z M248.1,388.3l3.6,0.4c-0.2,0.7-0.4,1.2-0.6,1.8h8.5v3h-10
				c-0.1,0.1-0.2,0.2-0.3,0.5c-0.1,0.2-0.2,0.4-0.3,0.5h9.1v6.9h-11.3V396l-2.1-1.6C246.5,392.5,247.6,390.5,248.1,388.3z
				 M246,411.8v-9.5h6.1v9.5h-2.5v-1.1h-1.1v1.1H246z M248.5,405.1v3h1.1v-3H248.5z M250.1,397.2v1.3h4.7v-1.3H250.1z M252.9,411.8
				v-9.5h6.1v9.5h-2.5v-1.1h-1.1v1.1H252.9z M255.3,405.1v3.1h1.1v-3.1H255.3z"/>
			<path class="st1" d="M262,389.1h10.4v8.7h-6.9v13.9H262V389.1z M265.4,391.7v0.9h3.5v-0.9H265.4z M265.4,395.6h3.5v-1h-3.5V395.6
				z M266.9,398.8h12.2v2.7h-1.7v1.7h2.4v2.8h-2.4v2.6h1.9c0.9,0,1.4-0.5,1.4-1.4v-9.5h-6.8v-8.7h10.3v18.8c0.1,2.3-1,3.5-3.3,3.6
				c-0.8,0.1-1.9,0.1-3.3,0.1c0-0.1-0.1-0.4-0.2-0.8c-0.1-0.3-0.1-0.6-0.2-0.8h-2.9v-4h-2.4c0,1.6-0.9,3.1-2.7,4.6
				c-0.1-0.1-0.4-0.2-0.7-0.5c-1-0.7-1.7-1-2.2-1.2c1.4-1.1,2.2-2.1,2.4-2.9h-2.2v-2.8h2.4c0-0.5,0-1.1,0-1.7h-1.8V398.8z
				 M271.9,401.5c0,0.6,0,1.1,0,1.7h2.2v-1.7H271.9z M277.1,391.7v0.9h3.5v-0.9H277.1z M277.1,394.6v1h3.5v-1H277.1z"/>
			<path class="st1" d="M288.8,405.9l-2.7-1.5c0.7-2.9,1.3-5.7,1.9-8.5h-1.5v-3.5h2.1c0.1-1.4,0.3-2.7,0.5-4l3.4,0.3l-0.7,3.7h4.8
				v3.4c-0.3,4.4-0.9,7.6-2.1,9.7l2.1,2.1l-2.6,2.5l-1.6-1.6c-1,1-2.2,2.1-3.8,3.3c-0.3-0.3-0.7-0.9-1.5-1.7c-0.5-0.5-0.8-0.8-1-1.1
				c1.6-1,2.8-2.1,3.8-3.3l-0.9-0.8C289,405.3,288.9,405.6,288.8,405.9z M293,396h-1.9c-0.3,1.8-0.6,3.6-1.1,5.5l1.7,1.6
				C292.4,401.2,292.8,398.9,293,396z M306.7,391.4c1.1,1.8,2.4,4.1,3.9,6.9l-3.3,1.8c-0.1-0.1-0.2-0.3-0.3-0.6
				c-0.1-0.2-0.2-0.5-0.5-1c-4.4,0.3-7.6,0.5-9.6,0.8l-0.3-3.5c0.3,0,0.7,0,1.2,0c0.3-0.7,0.9-2.1,1.7-4c0.8-1.8,1.3-2.9,1.6-3.5
				l3.9,1.7c-0.4,0.5-1,1.6-2,3.2c-0.7,1.1-1.1,1.9-1.5,2.4c1.2,0,2.3-0.1,3.4-0.2c-0.1-0.3-0.3-0.6-0.6-1.2
				c-0.3-0.6-0.5-1.1-0.7-1.5L306.7,391.4z M300.7,411.7H297v-11.1h12v11.1h-3.7v-1.2h-4.6V411.7z M300.7,404.1v3.1h4.6v-3.1H300.7z
				"/>
		</g>
		<g>
			<path class="st0" d="M68.9,402.1H73c0,0.3,0,0.6,0,1h9.3v2.9h-8.9c1,1.2,4.1,1.9,9.5,2.1c-0.3,0.5-0.6,1.1-1,2.1
				c-0.3,0.7-0.6,1.2-0.7,1.6c-4.9-0.5-8.3-1.5-10.2-3.2c-1.7,1.4-5.1,2.6-10.3,3.4c-0.1-0.3-0.4-0.8-0.8-1.6
				c-0.4-0.9-0.7-1.5-0.9-1.9c5.1-0.3,8-1.1,8.9-2.4h-8.2v-2.9h9c0-0.1,0-0.3,0.1-0.5C68.9,402.3,68.9,402.2,68.9,402.1z
				 M59.9,390.8h5c-0.2-0.3-0.5-0.8-0.9-1.4c-0.2-0.3-0.3-0.6-0.4-0.7l4.3-0.5c0.5,0.7,1,1.6,1.5,2.5h3.3c0.2-0.3,0.5-0.7,0.8-1.3
				c0.3-0.6,0.6-1.1,0.7-1.3l4.3,0.5c-0.1,0.1-0.2,0.3-0.4,0.6c-0.1,0.2-0.5,0.7-1,1.5h5.1v2.9H73v1.1h7.9v2.9H73v1h9.6v3H59.4v-3
				h9.5v-1h-7.5v-2.9h7.5v-1.1h-9V390.8z"/>
			<path class="st0" d="M84.5,392.9h2.2c0.2-1.4,0.4-2.9,0.6-4.5l3.7,0.3c-0.1,0.3-0.2,0.8-0.3,1.6c-0.2,1.2-0.3,2.1-0.4,2.6h4.9
				v3.2c-0.3,3.8-1,6.9-2.1,9.2l2.1,1.8l-2.3,3l-1.9-1.8c-1.3,1.2-2.7,2.4-4.2,3.6c-0.7-0.8-1.6-1.8-2.5-2.8
				c1.8-1.1,3.1-2.2,4.1-3.3c-0.3-0.3-0.6-0.6-0.9-0.9c-0.1,0.2-0.2,0.4-0.2,0.5l-3-1.5c0.7-2.5,1.3-5,1.8-7.4h-1.6V392.9z
				 M89.6,396.6c-0.3,1.8-0.7,3.4-1.1,5c0.7,0.5,1.3,0.9,1.9,1.5c0.7-1.6,1.1-3.7,1.3-6.4H89.6z M107.8,389.3v3.7l-3.7,4.6v0.9h4.1
				v3.8h-4.1v5.6c0.1,2.3-1.2,3.5-3.7,3.6c-0.5,0-1.1,0-2,0.1c-0.7,0-1.3,0-1.7,0c-0.1-1-0.4-2.2-0.8-3.7c0.8,0.1,1.7,0.1,2.5,0.1
				c1.1,0.1,1.6-0.4,1.6-1.5v-4.2h-4.6v-3.8h4.6v-1.9l2.9-3.6h-6.6v-3.7H107.8z"/>
			<path class="st0" d="M132.6,406.5c0,3.1-1.4,4.7-4.3,4.8c-1.2,0.1-2.7,0.1-4.5,0.1c-0.1-0.3-0.1-0.7-0.2-1.2
				c-0.1-0.8-0.3-1.7-0.6-2.6c0.8,0.1,2,0.1,3.5,0.1c1.4,0.1,2.1-0.6,2.1-2.1c0-0.7,0-2,0-4.1c0.1-2.7,0.1-4.7,0.1-5.8h-3.4
				c-0.4,1-0.8,2.1-1.4,3c-1-0.5-2-1.1-3-1.7v14.2h-3.8v-1.4h-2.8v1.5h-3.8v-19.3h2.7c0.3-1.3,0.6-2.5,0.7-3.6l4.3,0.5
				c-0.1,0.2-0.1,0.5-0.2,0.8c-0.1,0.7-0.3,1.5-0.6,2.3h3.5v4.1c1.3-2.8,2.3-5.4,2.9-7.8l3.9,0.9c-0.1,0.3-0.2,0.8-0.4,1.4
				c-0.2,0.7-0.4,1.1-0.5,1.5h6C132.7,399.2,132.6,404,132.6,406.5z M114.3,395.8v3.4h2.8v-3.4H114.3z M114.3,402.9v3.4h2.8v-3.4
				H114.3z M124.9,398.4c0.6,0.7,1.4,1.8,2.5,3.3c0.5,0.7,0.8,1.1,1.1,1.5l-3.3,2.1c-1.4-2.1-2.5-3.7-3.4-5L124.9,398.4z"/>
			<path class="st0" d="M134.9,397.7h23.8v4.4h-23.8V397.7z"/>
			<path class="st0" d="M160.6,397h9c0.1-1,0.1-2.2,0.1-3.6H162v-3.8h20.1v3.8h-8c0,0.5,0,1.1-0.1,1.9c0,0.8,0,1.4,0,1.8h9.5v3.8
				h-9.1c1.3,3.5,4.5,5.7,9.6,6.7c-0.8,1.3-1.6,2.6-2.3,3.9c-5.1-1.6-8.3-3.9-9.6-7c-1.2,2.9-4.4,5.4-9.5,7.3
				c-0.8-1.4-1.7-2.6-2.4-3.5c5.5-1.9,8.5-4.4,9.1-7.4h-8.6V397z"/>
			<path class="st0" d="M191.4,411.7h-3.5v-7.3c-0.6,0.5-1.2,1-1.8,1.4c-0.3-1.4-0.6-2.7-0.9-3.9c2.4-2.1,4.3-4.4,5.8-6.8l2,1.4
				c1.6-2.1,2.5-4.8,2.9-8l3.6,0.6c-0.2,1.1-0.4,2.1-0.7,2.9c0.2,0.1,0.5,0.3,0.9,0.5c0.6,0.4,1.1,0.7,1.4,0.9l-1.9,3.1
				c-0.2-0.1-0.5-0.4-1-0.8c-0.2-0.2-0.4-0.3-0.5-0.4c-0.7,1.6-1.5,3.1-2.6,4.5c-0.1-0.1-0.4-0.3-0.7-0.5c-0.6-0.4-1-0.7-1.3-1
				c-0.6,0.8-1.2,1.7-1.8,2.4v8.3c2-1.9,2.8-4.8,2.5-8.6h3.7c0,0.3,0,0.8-0.1,1.5c0,1.4-0.1,2.5-0.2,3.1c0.6,1,1.3,1.8,2.1,2.2v-7.8
				h1.5c-0.2-0.1-0.5-0.3-0.8-0.5c-0.7-0.5-1.2-0.8-1.6-1c2.1-2.3,3.5-5.4,4-9.5l3.6,0.7c-0.1,0.3-0.2,0.8-0.3,1.5
				c-0.2,0.8-0.4,1.5-0.5,1.9c0.2,0.2,0.5,0.5,0.8,1c1.5,1.6,2.5,2.8,3.1,3.5l-2.7,2.3c-0.7-1-1.6-2.1-2.5-3.3
				c-0.6,1.2-1.3,2.3-2.1,3.4h1.1v1.9h5.3v3.3h-5.3v3.4c1,0.1,2.8,0,5.2-0.1c0.4,0,0.7,0,1,0c-0.1,0.4-0.2,0.9-0.4,1.5
				c-0.2,0.9-0.3,1.6-0.4,2c-3.5,0-5.5,0-6.2-0.1c-2.7-0.1-4.7-0.9-6.1-2.5c-0.5,0.9-1.2,2-2.1,3.1c-0.8-0.8-1.7-1.7-2.6-2.6V411.7z
				 M190.7,388.4l3,2.1c-2,2.4-4.1,4.8-6.5,7c-0.1-0.2-0.2-0.5-0.4-0.9c-0.3-0.9-0.7-1.9-1.2-2.9
				C187.4,392.5,189.1,390.7,190.7,388.4z"/>
			<path class="st0" d="M221,411.3h-3.7v-11.1h-1.5c0,5.1-0.8,9.1-2.3,11.8c-0.3-0.3-0.7-0.8-1.5-1.6c-0.8-0.8-1.3-1.3-1.5-1.5
				c1-1.8,1.5-5,1.5-9.5v-9.7c4-0.3,7.1-0.6,9.4-1l1.3,3.6c-1.8,0.3-4.1,0.5-6.8,0.7v3.4h5.5c1.7-2.6,2.9-5.4,3.6-8.3l3.8,0.6
				c-0.3,0.9-0.6,1.8-0.9,2.5h6.5v3.4l-1,4.1l-3.5-0.6l0.8-3.4h-4.3c-0.1,0.1-0.1,0.2-0.2,0.4c-0.1,0.1-0.2,0.5-0.5,1h3.8
				c0,0.2,0,0.5,0,1c-0.1,0.7-0.1,1.2-0.1,1.6c0.5,3.8,2.3,7,5.3,9.6c-0.4,0.5-1,1.4-1.9,2.7c-0.2,0.3-0.4,0.6-0.5,0.8
				c-2.4-2.7-3.9-5.1-4.5-7.3c-0.5,2.5-2,5-4.4,7.4c-0.1-0.2-0.3-0.5-0.6-0.8c-0.8-1-1.4-1.8-1.9-2.2V411.3z M225.6,399.1
				c0.1-0.6,0.1-1.6,0.1-2.8c-0.4,0.8-0.9,1.7-1.5,2.6c-0.1-0.1-0.2-0.2-0.3-0.3c-0.6-0.5-1.1-0.8-1.5-1v2.5H221v8.5
				C223.9,406.1,225.4,402.9,225.6,399.1z"/>
			<path class="st0" d="M245.4,395.5v9.4h-1.6v3h1.6v3h-5.7v1h-3.1v-22.7h9v3.3h-1.8v2.9H245.4z M239.8,392.6v2.9h1.3v-2.9H239.8z
				 M242.7,398.6h-2.9v3.1h2.9V398.6z M239.8,404.9v3h1.3v-3H239.8z M248.1,388.3l3.6,0.4c-0.2,0.7-0.4,1.2-0.6,1.8h8.5v3h-10
				c-0.1,0.1-0.2,0.2-0.3,0.5c-0.1,0.2-0.2,0.4-0.3,0.5h9.1v6.9h-11.3V396l-2.1-1.6C246.5,392.5,247.6,390.5,248.1,388.3z
				 M246,411.8v-9.5h6.1v9.5h-2.5v-1.1h-1.1v1.1H246z M248.5,405.1v3h1.1v-3H248.5z M250.1,397.2v1.3h4.7v-1.3H250.1z M252.9,411.8
				v-9.5h6.1v9.5h-2.5v-1.1h-1.1v1.1H252.9z M255.3,405.1v3.1h1.1v-3.1H255.3z"/>
			<path class="st0" d="M262,389.1h10.4v8.7h-6.9v13.9H262V389.1z M265.4,391.7v0.9h3.5v-0.9H265.4z M265.4,395.6h3.5v-1h-3.5V395.6
				z M266.9,398.8h12.2v2.7h-1.7v1.7h2.4v2.8h-2.4v2.6h1.9c0.9,0,1.4-0.5,1.4-1.4v-9.5h-6.8v-8.7h10.3v18.8c0.1,2.3-1,3.5-3.3,3.6
				c-0.8,0.1-1.9,0.1-3.3,0.1c0-0.1-0.1-0.4-0.2-0.8c-0.1-0.3-0.1-0.6-0.2-0.8h-2.9v-4h-2.4c0,1.6-0.9,3.1-2.7,4.6
				c-0.1-0.1-0.4-0.2-0.7-0.5c-1-0.7-1.7-1-2.2-1.2c1.4-1.1,2.2-2.1,2.4-2.9h-2.2v-2.8h2.4c0-0.5,0-1.1,0-1.7h-1.8V398.8z
				 M271.9,401.5c0,0.6,0,1.1,0,1.7h2.2v-1.7H271.9z M277.1,391.7v0.9h3.5v-0.9H277.1z M277.1,394.6v1h3.5v-1H277.1z"/>
			<path class="st0" d="M288.8,405.9l-2.7-1.5c0.7-2.9,1.3-5.7,1.9-8.5h-1.5v-3.5h2.1c0.1-1.4,0.3-2.7,0.5-4l3.4,0.3l-0.7,3.7h4.8
				v3.4c-0.3,4.4-0.9,7.6-2.1,9.7l2.1,2.1l-2.6,2.5l-1.6-1.6c-1,1-2.2,2.1-3.8,3.3c-0.3-0.3-0.7-0.9-1.5-1.7c-0.5-0.5-0.8-0.8-1-1.1
				c1.6-1,2.8-2.1,3.8-3.3l-0.9-0.8C289,405.3,288.9,405.6,288.8,405.9z M293,396h-1.9c-0.3,1.8-0.6,3.6-1.1,5.5l1.7,1.6
				C292.4,401.2,292.8,398.9,293,396z M306.7,391.4c1.1,1.8,2.4,4.1,3.9,6.9l-3.3,1.8c-0.1-0.1-0.2-0.3-0.3-0.6
				c-0.1-0.2-0.2-0.5-0.5-1c-4.4,0.3-7.6,0.5-9.6,0.8l-0.3-3.5c0.3,0,0.7,0,1.2,0c0.3-0.7,0.9-2.1,1.7-4c0.8-1.8,1.3-2.9,1.6-3.5
				l3.9,1.7c-0.4,0.5-1,1.6-2,3.2c-0.7,1.1-1.1,1.9-1.5,2.4c1.2,0,2.3-0.1,3.4-0.2c-0.1-0.3-0.3-0.6-0.6-1.2
				c-0.3-0.6-0.5-1.1-0.7-1.5L306.7,391.4z M300.7,411.7H297v-11.1h12v11.1h-3.7v-1.2h-4.6V411.7z M300.7,404.1v3.1h4.6v-3.1H300.7z
				"/>
		</g>
	</g>
	<g id="XMLID_1935_">
		<g id="XMLID_1941_">
			<path class="st0" d="M-318.7,413.3c-1.8,0-3.3-1.8-3.3-4c0-2.4,2.1-8.2,4-12.6c1.8-3.9,4.1-8.4,6.2-12.2
				c-1.3,0.3-2.7,0.8-3.7,1.1c-0.6,0.3-1.2,0.3-1.5,0.3c-1.4,0-2.5-1.3-2.5-2.9c0-2.4,1.9-3.5,4.9-4.4c3.3-1.1,5.7-1.6,9.5-2.2
				c2.9-0.4,5.5-0.6,7.5-0.6c3.6,0,4.4,1.8,4.4,3.3c0,1.1-0.5,3-3.8,3.2c-1.4,0.1-3.3,0.2-5.2,0.4c-1,0.1-1.7,0.1-2.4,0.2
				c0,0.1,0,0.1,0,0.2c0,0.7-0.2,1.2-0.6,2l0,0.1l-0.1,0.1c-0.1,0.1-0.2,0.3-0.3,0.6c-0.1,0.2-0.3,0.5-0.4,0.8l-2.2,4.2
				c-1.5,2.9-3,6.1-4.1,8.9c-1.2,3-2.5,6.9-3,8.7l-0.4,1.8C-316.3,412.3-317.3,413.3-318.7,413.3z"/>
			<path class="st2" d="M-297.5,377c2.3,0,3.4,0.7,3.4,2.3c0,1.4-1,2.1-2.8,2.2c-1.5,0.1-3.4,0.2-5.2,0.4c-1.6,0.1-2.5,0.2-3.7,0.4
				c0.3,0.4,0.4,0.6,0.4,1c0,0.5-0.1,0.8-0.5,1.5c-0.1,0.2-0.4,0.7-0.9,1.6l-2.2,4.2c-1.5,2.8-3,6.1-4.2,9c-1.1,2.9-2.5,6.9-3.1,8.8
				l-0.5,1.9c-0.4,1.4-1,2.1-1.9,2.1c-1.3,0-2.3-1.3-2.3-3c0-1.9,1.7-7.1,4-12.2c1.9-4.2,4.7-9.7,7.3-14.1c-1.7,0.4-4.3,1.1-6.1,1.7
				c-0.5,0.2-0.9,0.3-1.2,0.3c-0.8,0-1.5-0.8-1.5-1.9c0-1.6,1.1-2.5,4.2-3.4c3.4-1.1,5.8-1.6,9.3-2.1
				C-302.1,377.2-299.5,377-297.5,377 M-297.5,375c-2.1,0-4.7,0.2-7.6,0.6c-3.8,0.6-6.3,1.1-9.7,2.2c-1.9,0.6-5.6,1.7-5.6,5.3
				c0,2.1,1.6,3.9,3.5,3.9c0.4,0,1.1-0.1,1.9-0.4c0.4-0.1,0.8-0.3,1.2-0.4c-1.8,3.3-3.6,6.9-5,10.1c-2.1,4.6-4.1,10.5-4.1,13.1
				c0,2.7,1.9,5,4.3,5c1.1,0,3-0.5,3.8-3.6l0.5-1.9c0.4-1.7,1.8-5.6,3-8.6c1.1-2.8,2.6-6,4.1-8.8l2.2-4.2c0.1-0.3,0.3-0.5,0.4-0.8
				c0.1-0.2,0.2-0.4,0.3-0.5l0,0l0.1-0.1c0.4-0.6,0.6-1.1,0.7-1.8c0.4,0,0.9-0.1,1.5-0.1c2-0.2,3.8-0.3,5.2-0.4
				c4.4-0.2,4.8-3.3,4.8-4.2C-292.1,378-292.7,375-297.5,375L-297.5,375z"/>
		</g>
		<g id="XMLID_1958_">
			<path class="st0" d="M-311.1,411.9c-1.5,0-2.6-1.2-2.6-2.8c0-2.2,2-7.6,3.8-11.1c0.9-1.8,2-3.5,2.7-4.4c0.5-0.7,1.3-1.4,2.6-1.4
				c1.4,0,2.5,1.1,2.5,2.5c0.1-0.1,0.2-0.1,0.3-0.2c1.8-1.5,2.7-2.1,3.7-2.1c1,0,1.9,0.8,2.3,1.8c1.8-3,3.2-4.2,4.6-4.2
				c1.4,0,2.5,1.2,2.5,2.7c0,1.1-0.3,1.8-1.3,3.2c-2.1,3.1-2.7,5-2.9,6.1c0.1-0.1,0.1-0.2,0.2-0.3c1-1.2,2.2-3.2,3.2-5l1.6-2.8
				c0.8-1.4,1.7-2.1,2.8-2.1c1.5,0,2.5,1.2,2.5,2.8c0,1.2-0.4,2-1.9,4.5c-1.1,2-1.7,3.3-1.9,4.1c0.3-0.3,0.8-0.8,1.5-1.8l1.3-1.9
				c0.5-0.8,1.2-1.5,2.3-1.5c0.2,0,0.4,0,0.7,0.1c-0.2-0.7-0.3-1.3-0.3-2.1c0-2.7,1.2-4.8,3.7-6.6c2-1.3,3.8-2,5.8-2
				c2.1,0,3.8,0.9,4.7,2.5c0.3-0.1,0.6-0.2,1-0.2c0.5-0.1,0.9-0.1,1.2-0.2l0,0c1.8-2.9,3.4-5.2,4.9-7.1c0.8-1,1.6-1.8,2.9-1.8
				c1.5,0,2.6,1.1,2.6,2.6c0,1.1-0.4,1.8-2,3.9c0.3-0.1,0.6-0.1,0.8-0.1c1.5,0,2.6,1.3,2.6,2.9c0,0.5-0.1,1-0.4,1.5
				c0.7-0.3,1.5-0.5,2.2-0.5c2.3,0,4,1.9,4,4.5c0,0.3,0,0.6,0,0.9c0.4-0.7,0.9-1.4,1.4-2c1.8-2.4,4.4-4,6.7-4c0.6,0,1.2,0.1,1.7,0.3
				c0.8-1.9,1.3-2.9,2.4-5.2l0.2-0.3c1.6-3.3,2.7-5,4.5-5c1.4,0,2.5,1.2,2.5,2.8c0,0.9-0.3,1.6-0.9,2.7c-1.2,2.2-2.1,4-3.9,7.7
				c-1.4,2.9-2.6,5.9-3.4,8.3c-0.3,0.8-0.4,1.5-0.5,2c0.1-0.1,0.1-0.1,0.2-0.2c0.4-0.5,1.4-1.9,1.9-2.9c0.8-1.3,1.5-2.3,2.8-2.3
				c1.2,0,2.1,1,2.1,2.3c0,1.4-1.5,4.2-3,6.4c-2.2,3.1-4,4.5-5.9,4.5c-1.4,0-2.4-0.7-3-1.9c-1.3,1.6-2.8,2.4-4.4,2.4
				c-1.9,0-3.3-1.2-4-3.2c-2,1.7-4.2,2.6-6.1,2.6c-2.2,0-4-1.3-4.9-3.3c-2,2-3.9,3-5.8,3c-2.7,0-4.6-2.2-4.6-5.2
				c0-2.1,0.5-4.4,1.7-7.2c-1,0.8-2.1,1.4-3.2,1.4c-0.3,0-0.6-0.1-0.9-0.2c1.1,1.7,1.5,3,1.5,4.5c0,3.6-2.9,6.4-6.6,6.4
				c-2.2,0-4.1-1-5.3-2.8c-1.8,1.8-3.5,2.8-5.1,2.8c-1.5,0-2.7-0.9-3.3-2.3c-1.1,1.1-2.2,1.6-3.5,1.6c-2.3,0-4.1-2.1-4.1-5
				c0,0,0,0,0,0c-0.6,0.2-1.1,0.3-1.7,0.3c-1.6,0-2.9-0.9-3.2-2.3c-1.3,1.4-2.4,3.1-3.1,4.7l-1,2.4
				C-308.8,410.8-309.6,411.9-311.1,411.9z M-239.6,396.5c-0.4,0.2-0.9,0.8-1.6,1.9c-1.5,2.2-2.5,4.9-2.5,6.6
				c0.2-0.2,0.5-0.6,0.9-1.2c0.5-1,1.3-2.7,2.4-5.1L-239.6,396.5z M-255.3,404.3c0,0.5,0.2,0.7,0.8,0.7c0.6,0,1.7-0.5,2.7-1.4
				c-0.9,0.5-1.9,0.7-2.9,0.7C-254.9,404.3-255.1,404.3-255.3,404.3z M-279.4,402.7c0,0.1,0.1,0.3,0.1,0.5c0.1,0.4,0.4,1.2,1.2,1.2
				c0.4,0,0.7-0.2,0.7-0.6c0-0.3,0-0.4-1.5-2.5c-0.1-0.2-0.3-0.4-0.4-0.6c0,0.1,0,0.2-0.1,0.4L-279.4,402.7L-279.4,402.7z
				 M-260.8,394.6c-1.5,2.4-2,3.6-2.9,6.1c-0.7,1.7-0.9,2.6-0.9,3.3c0,0.2,0,0.3,0,0.3c0.6-0.2,2.2-1.6,4.2-4.6
				c0.3-0.5,0.7-0.9,1-1.1c0.9-2,2.3-4,4-5.5c-0.2,0-0.3,0.1-0.5,0.1c-0.6,0.1-2.3,0.5-3.9,1c-0.4,0.1-0.5,0.2-0.7,0.2L-260.8,394.6
				z M-272.1,393.4c-1.5,0.1-3,1.5-3,2.5c0,0.3,0,0.6,0.2,1c0.1-0.9,0.5-1.7,1.3-2.2l0.9-0.5C-272.4,393.9-272.1,393.5-272.1,393.4z
				"/>
			<path class="st2" d="M-229.8,380.8c0.8,0,1.5,0.8,1.5,1.8c0,0.6-0.2,1.1-0.8,2.2c-1.3,2.3-2.2,4.2-3.9,7.8
				c-1.5,3.1-2.7,6.2-3.5,8.4c-0.4,1.2-0.6,2.1-0.6,2.6c0,0.6,0.3,1,0.6,1c0.4,0,0.9-0.4,1.3-0.9c0.5-0.6,1.5-2,2-3
				c0.9-1.4,1.3-1.8,1.9-1.8c0.6,0,1.1,0.6,1.1,1.3c0,1-1.2,3.5-2.8,5.9c-2,2.8-3.6,4.1-5.1,4.1c-1.5,0-2.5-1.2-2.6-3.4
				c-1.2,2.4-3,3.9-4.8,3.9c-1.9,0-3.2-1.7-3.4-4.1c-2.2,2.2-4.6,3.5-6.7,3.5c-2.3,0-4.1-1.7-4.4-4.3c0,0,0,0,0,0
				c-2.2,2.6-4.2,4-6.2,4c-2.1,0-3.6-1.8-3.6-4.2c0-2.8,1-6,3.6-10.8c-0.4,0.1-0.5,0.1-0.8,0.1c-0.2,0-0.4,0-0.6-0.1
				c-0.9,2.1-2.9,4-4.6,4c-1,0-1.7-0.8-1.7-1.8c0-0.7,0.3-1.2,0.9-1.6l0.9-0.5c0.6-0.4,1-1,1-1.6s-0.5-0.9-1-0.9
				c-1.9,0-3.9,1.8-3.9,3.4c0,1,0.4,1.8,1.7,3.6c1.3,1.9,1.9,3.2,1.9,4.7c0,3-2.5,5.4-5.6,5.4c-2.4,0-4.3-1.4-5.1-3.5
				c-1.9,2.3-3.7,3.5-5.3,3.5c-1.5,0-2.6-1.3-2.6-3.2c0-0.3,0-0.5,0.1-0.9c-1.4,2.3-2.7,3.4-4.3,3.4c-1.7,0-3.1-1.7-3.1-4
				c0-0.5,0.1-1,0.1-1.6c-1,0.6-1.9,0.9-2.8,0.9c-1.3,0-2.3-0.9-2.3-2.1c0-0.7,0.2-1.2,0.6-2c-2.3,1.8-4.5,4.5-5.6,7l-1,2.4
				c-0.5,1.1-1,1.5-1.8,1.5c-1,0-1.6-0.7-1.6-1.8c0-1.8,1.7-6.9,3.6-10.6c0.8-1.7,1.9-3.4,2.6-4.2c0.6-0.8,1.2-1.1,1.9-1.1
				c0.9,0,1.5,0.7,1.5,1.6c0,0.7-0.1,1-1.2,2.4c-0.8,1.1-1.6,2.5-2,3.5l0.3-0.4c1.6-2.1,3-3.4,4.8-5c1.7-1.4,2.4-1.9,3.1-1.9
				c0.7,0,1.4,0.8,1.4,1.7c0,0.8-0.4,1.4-1.5,2.2c-1,0.9-1.7,1.7-1.7,2.1c0,0.2,0.2,0.4,0.5,0.4c0.4,0,1.3-0.6,2.3-1.6
				c0.2-0.2,0.4-0.4,0.5-0.5c0.4-0.9,0.9-1.9,1.4-2.8c1.6-2.7,2.9-4,3.9-4c0.9,0,1.5,0.7,1.5,1.7c0,0.8-0.2,1.2-1.1,2.7
				c-2,3.1-3.1,5.6-3.1,7.4c0,0.6,0.2,0.8,0.5,0.8c0.4,0,1-0.4,1.5-1.2c1-1.3,2.3-3.3,3.3-5.2l1.5-2.7c0.6-1.1,1.2-1.6,2-1.6
				c0.9,0,1.5,0.7,1.5,1.8c0,0.9-0.2,1.5-1.7,4c-1.5,2.6-2,4-2,5c0,0.5,0.3,0.9,0.6,0.9c0.6,0,1.5-0.9,2.7-2.6l0.9-1.3
				c0,0,0.1-0.1,0.1-0.1l0.3-0.5c0.5-0.8,1-1.1,1.5-1.1c0.6,0,1,0.6,1,1.3c0,0.2,0,0.5-0.1,0.7l-0.1,1.8c0,0.1,0.1,0.3,0.2,0.7
				c0.3,1.2,1.1,2,2.1,2c1,0,1.7-0.7,1.7-1.6c0-0.7-0.1-0.9-1.6-3.1c-1.5-2-1.9-3.1-1.9-4.8c0-2.4,1-4.2,3.3-5.8
				c1.7-1.2,3.4-1.8,5.2-1.8c2.1,0,3.6,1,4.1,2.7c0.5-0.2,1-0.3,1.8-0.5c0.7-0.1,1.2-0.2,1.7-0.4l0.2-0.4c1.6-2.6,3.2-4.9,4.8-7
				c0.8-1,1.4-1.5,2.1-1.5c1,0,1.6,0.7,1.6,1.6c0,0.8-0.3,1.2-2.1,3.8c-0.5,0.7-0.8,1.2-1.2,1.8c0.3-0.1,0.4-0.2,0.5-0.2l1.4-0.4
				c0.5-0.2,1.1-0.3,1.4-0.3c0.9,0,1.6,0.8,1.6,1.9c0,0.7-0.3,1.3-0.8,1.8c-0.4,0.3-0.8,0.5-1.9,0.6c-0.7,0.1-2.5,0.5-4,1
				c-0.5,0.2-0.7,0.2-1.1,0.4l-0.4,0.6c-1.5,2.5-2.1,3.7-3,6.2c-0.7,1.8-1,2.8-1,3.6c0,0.8,0.4,1.3,1,1.3c1,0,3.1-2.1,5.1-5.1
				c0.4-0.5,0.6-0.8,0.9-1c1.8-4.1,5.2-7.5,8-7.5c1.8,0,3,1.5,3,3.5c0,4-3.6,8.1-7.1,8.1c-0.5,0-0.7-0.1-1.3-0.3
				c-0.2,0.5-0.3,0.7-0.3,1.1c0,1.1,0.7,1.8,1.8,1.8c1.6,0,4.1-1.9,5.8-4.4l1-1.5c0.1-0.2,0.2-0.3,0.4-0.4c0.7-1.8,1.7-3.5,2.9-5
				c1.6-2.2,4-3.6,5.9-3.6c0.9,0,1.5,0.2,2.2,0.7c1.2-2.7,1.6-3.6,3-6.5C-231.9,382-231,380.8-229.8,380.8 M-244,406.2
				c0.6,0,1.3-0.7,2-2c0.5-0.9,1.3-2.6,2.4-5.2l1.5-3.4c-0.3-0.2-0.5-0.3-0.8-0.3c-1.1,0-1.9,0.7-3.1,2.5c-1.6,2.4-2.7,5.3-2.7,7.2
				C-244.8,405.8-244.5,406.2-244,406.2 M-254,399.5c1.4,0,3-1.6,3-3c0-0.4-0.2-0.6-0.5-0.6c-0.7,0-2.1,1.6-3.1,3.5
				C-254.4,399.4-254.2,399.5-254,399.5 M-229.8,378.8c-2.6,0-3.9,2.4-5.4,5.6l-0.2,0.4c-0.9,2-1.4,3-2,4.5
				c-0.4-0.1-0.7-0.1-1.1-0.1c-2.5,0-5.3,1.6-7.3,4.1c-0.7-2.2-2.4-3.6-4.7-3.6c-0.3,0-0.6,0-0.9,0.1c0,0,0-0.1,0-0.1
				c0-1.8-1.1-3.3-2.6-3.8c0.8-1.1,1.1-1.9,1.1-2.9c0-2-1.6-3.6-3.6-3.6c-1.7,0-2.8,1.1-3.7,2.2c-1.5,2-3.1,4.2-4.8,6.9
				c-0.2,0-0.4,0.1-0.7,0.1l0,0l0,0c-0.1,0-0.3,0-0.4,0.1c-1.1-1.5-2.9-2.4-5.1-2.4c-2.1,0-4.2,0.7-6.3,2.2c-2.2,1.5-3.5,3.3-4,5.4
				c-0.3-1.8-1.7-3.1-3.5-3.1c-1,0-1.9,0.4-2.7,1.2c-0.3-1.7-1.7-3-3.4-3c-1.8,0-3.3,1.5-4.6,3.4c-0.6-0.6-1.4-1-2.3-1
				c-1.2,0-2.2,0.6-3.4,1.6c-0.6-1.1-1.8-1.8-3.1-1.8c-1.7,0-2.7,1-3.4,1.8c-0.8,1-1.9,2.8-2.9,4.6c-1.9,3.6-3.8,9.1-3.8,11.5
				c0,2.2,1.6,3.8,3.6,3.8c2.4,0,3.3-2,3.6-2.7l0,0l0,0l1-2.4c0.5-1.1,1.2-2.2,2-3.3c0.8,0.9,2,1.5,3.4,1.5c0.3,0,0.5,0,0.8-0.1
				c0.4,2.8,2.4,4.8,5,4.8c1.3,0,2.4-0.4,3.2-1.1c0.8,1.1,2.1,1.8,3.5,1.8c1.6,0,3.3-0.8,5-2.3c1.4,1.5,3.3,2.3,5.4,2.3
				c2.9,0,5.4-1.6,6.7-3.9c0.7,2.5,2.8,4.2,5.3,4.2c1.8,0,3.7-0.8,5.5-2.4c1.2,1.7,3,2.7,5.1,2.7c1.8,0,3.8-0.7,5.7-2.1
				c1,1.6,2.5,2.6,4.4,2.6c1.5,0,3-0.7,4.3-1.9c0.8,0.8,1.9,1.3,3.1,1.3c2.9,0,5.1-2.6,6.7-4.9c0.3-0.5,3.2-4.7,3.2-7
				c0-1.8-1.4-3.3-3.1-3.3c-0.8,0-1.4,0.3-1.9,0.6c0.6-1.4,1.2-2.8,1.8-4.2c1.7-3.7,2.6-5.5,3.9-7.6c0.6-1.1,1-2,1-3.2
				C-226.3,380.5-227.9,378.8-229.8,378.8L-229.8,378.8z M-260,395.1c0.1,0,0.2-0.1,0.3-0.1c0.5-0.1,0.9-0.3,1.4-0.4
				c-0.8,1-1.5,2.2-2,3.3c-0.4,0.4-0.8,0.8-1,1.2c-0.6,1-1.2,1.7-1.7,2.3c0.1-0.1,0.1-0.3,0.2-0.4
				C-261.9,398.6-261.4,397.4-260,395.1L-260,395.1z M-282.3,397.1c0.2-0.3,0.3-0.6,0.4-0.9c0,0.3,0,0.5,0.1,0.8
				C-282,397.1-282.1,397.1-282.3,397.1L-282.3,397.1z M-271.4,400.7c0.2,0,0.3-0.1,0.5-0.1c-0.1,0.2-0.1,0.5-0.2,0.7
				C-271.2,401.1-271.3,400.9-271.4,400.7L-271.4,400.7z"/>
		</g>
		<g id="XMLID_1972_">
			<path class="st0" d="M-210.7,411c-1.8,0-3.2-1.1-3.9-2.9c-1.9,1.9-3.7,2.8-5.5,2.8c-2.7,0-4.6-2.2-4.6-5.2c0-2.7,0.9-5.7,3-9.9
				c-1.2-0.3-2-1.4-2-2.7c0-2.5,2-3,4.1-3.4c0.5-0.1,0.9-0.1,1.2-0.2l0,0c1.8-2.9,3.4-5.2,4.9-7.1c0.8-1,1.6-1.8,2.9-1.8
				c1.5,0,2.6,1.1,2.6,2.6c0,1.1-0.4,1.8-2,3.9c0.3-0.1,0.6-0.1,0.8-0.1c1.5,0,2.6,1.3,2.6,2.9c0,0.1,0,0.3,0,0.4
				c0.8-0.4,1.6-0.6,2.4-0.6c2.4,0,3.9,2.1,3.9,5.2c0,2.1-0.5,3.8-1.5,5.5c0,0.1,0,0.2,0,0.2c0,1.6-0.8,3.8-2.1,5.8
				C-205.9,409.3-208.3,411-210.7,411z M-214.8,394.6c-1.5,2.4-2,3.6-2.9,6.1c-0.7,1.7-0.9,2.6-0.9,3.3c0,0.2,0,0.3,0,0.3
				c0.6-0.2,2.2-1.6,4.2-4.6c0.3-0.4,0.6-0.8,0.8-1c0.5-1.3,1.2-2.5,1.9-3.6c0.5-0.7,1-1.4,1.5-2c-0.7,0.1-2.3,0.5-3.7,0.9
				c-0.4,0.1-0.5,0.2-0.7,0.2L-214.8,394.6z M-206.1,397c-0.3,0.3-0.6,0.8-0.9,1.3c-1.4,2.2-2.3,4.5-2.3,5.7c0,0,0,0,0,0
				c0.3-0.2,0.8-0.8,1.5-2.2c-0.2-0.3-0.3-0.7-0.3-1.1c0-0.7,0.3-1.1,0.8-1.6C-206.9,398.6-206.4,397.7-206.1,397z"/>
			<path class="st2" d="M-210.6,381.4c1,0,1.6,0.7,1.6,1.6c0,0.8-0.3,1.2-2.1,3.8c-0.5,0.7-0.8,1.2-1.2,1.8c0.3-0.1,0.4-0.2,0.5-0.2
				l1.4-0.4c0.5-0.2,1.1-0.3,1.4-0.3c0.9,0,1.6,0.8,1.6,1.9c0,0.7-0.3,1.3-0.8,1.8c-0.4,0.3-0.8,0.5-1.9,0.6c-0.7,0.1-2.5,0.5-4,1
				c-0.5,0.2-0.7,0.2-1.1,0.4l-0.4,0.6c-1.5,2.5-2.1,3.7-3,6.2c-0.7,1.8-1,2.8-1,3.6c0,0.8,0.4,1.3,1,1.3c1,0,3.1-2.1,5.1-5.1
				c0.3-0.5,0.6-0.8,0.8-0.9c0.5-1.3,1.2-2.5,2-3.7c2-3.1,4.6-5.1,6.6-5.1c1.8,0,2.9,1.7,2.9,4.2c0,2-0.5,3.6-1.5,5.2
				c0,0.2,0,0.4,0,0.5c0,1.4-0.7,3.4-2,5.2c-1.8,2.7-4,4.3-6,4.3c-1.8,0-3.1-1.6-3.4-3.9c-2.1,2.5-4.1,3.8-6.1,3.8
				c-2.1,0-3.6-1.8-3.6-4.2c0-2.8,1-6,3.6-10.8c-0.4,0.1-0.5,0.1-0.8,0.1c-1.1,0-1.8-0.7-1.8-1.8c0-1.4,0.8-2,3.3-2.4
				c0.7-0.1,1.2-0.2,1.7-0.4l0.2-0.4c1.6-2.6,3.2-4.9,4.8-7C-211.9,381.8-211.3,381.4-210.6,381.4 M-209.6,405.2
				c0.9,0,1.9-1.1,2.9-3.4c-0.4-0.5-0.5-0.7-0.5-1c0-0.3,0.1-0.5,0.5-0.9c1-1.1,1.9-3.1,1.9-4.1c0-0.4-0.2-0.6-0.5-0.6
				c-0.6,0-1.5,1-2.6,2.7c-1.5,2.3-2.5,4.8-2.5,6.3C-210.4,404.7-210.1,405.2-209.6,405.2 M-210.6,379.4c-1.7,0-2.8,1.1-3.7,2.2
				c-1.5,2-3.1,4.2-4.8,6.9c-0.2,0-0.4,0.1-0.7,0.1l0,0l0,0c-1.6,0.3-4.9,0.9-4.9,4.4c0,1.4,0.6,2.5,1.6,3.2
				c-1.8,3.9-2.6,6.7-2.6,9.4c0,3.6,2.4,6.2,5.6,6.2c1.8,0,3.5-0.7,5.2-2.2c1,1.4,2.4,2.3,4.2,2.3c2.7,0,5.5-1.8,7.7-5.2
				c1.4-2.2,2.3-4.5,2.3-6.3c1-1.8,1.5-3.6,1.5-5.7c0-4.3-2.5-6.2-4.9-6.2c-0.5,0-0.9,0.1-1.4,0.2c-0.3-1.3-1.2-2.4-2.5-2.8
				c0.8-1.1,1.1-1.9,1.1-2.9C-207,381-208.6,379.4-210.6,379.4L-210.6,379.4z M-214,395.1c0.1,0,0.2-0.1,0.3-0.1
				c0.3-0.1,0.7-0.2,1-0.3c-0.7,1-1.3,2.2-1.8,3.3c-0.3,0.3-0.6,0.6-0.9,1.1c-0.6,1-1.2,1.7-1.7,2.3c0.1-0.1,0.1-0.3,0.2-0.4
				C-215.9,398.6-215.4,397.4-214,395.1L-214,395.1z"/>
		</g>
		<g id="XMLID_1980_">
			<path class="st0" d="M-146,389.6c-1.5,0-2.7-1.2-2.7-2.8c0-2.5,2.3-5.1,4.5-5.1c1.5,0,2.6,1.3,2.6,3
				C-141.6,387.1-143.8,389.6-146,389.6z"/>
			<path class="st2" d="M-144.2,382.6c1,0,1.6,0.8,1.6,2c0,1.9-1.7,3.9-3.4,3.9c-1,0-1.7-0.8-1.7-1.8
				C-147.7,384.8-145.9,382.6-144.2,382.6 M-144.2,380.6c-2.8,0-5.5,3-5.5,6.1c0,2.1,1.6,3.8,3.7,3.8c2.8,0,5.4-2.9,5.4-5.9
				C-140.6,382.4-142.2,380.6-144.2,380.6L-144.2,380.6z"/>
		</g>
		<g id="XMLID_2079_">
			<path class="st0" d="M-125.1,411.9c-1.3,0-2.3-0.8-2.6-2.1c-1.5,0.9-2.9,1.3-4.3,1.3c-3.2,0-5.5-2.6-5.5-6.3
				c0-0.8,0.1-1.6,0.2-2.4c-0.1,0-0.2,0-0.4-0.1c-2.6,4.6-5.5,7.2-8.2,7.2c-1.2,0-2.3-0.6-3.1-1.7c-1.6,1.5-3.4,2.3-4.9,2.3
				c-1.4,0-2.5-0.6-3.3-1.7c-1.9,1.9-3.7,2.8-5.5,2.8c-2,0-3.5-1.1-4.3-2.9c-2.1,1.8-4.4,2.8-6.4,2.8c-2,0-3.7-1-4.6-2.8
				c-1.6,1.9-3.1,2.8-4.6,2.8c-1.4,0-2.4-0.7-3-1.9c-1.3,1.6-2.8,2.4-4.4,2.4c-2.6,0-4.4-2.3-4.4-5.7c0-3.9,1.7-8.3,4.5-11.9
				c1.8-2.4,4.4-4,6.7-4c0.6,0,1.2,0.1,1.7,0.3c0.8-1.9,1.3-2.9,2.4-5.2l0.2-0.4c1.6-3.3,2.8-5,4.6-5c1.4,0,2.5,1.2,2.5,2.8
				c0,0.9-0.3,1.6-0.9,2.7c-1.2,2.2-2.1,4-3.9,7.7c-1.4,2.9-2.6,5.9-3.4,8.3c-0.3,0.8-0.4,1.5-0.5,2c0.1-0.1,0.1-0.1,0.2-0.2
				c0.4-0.5,1.4-1.9,1.9-2.9c0.4-0.7,0.8-1.2,1.1-1.5c1.8-3.9,5.3-8,8.9-8c2.2,0,3.8,1.6,3.9,4c2.2-5,5.5-10.6,8.1-13.5
				c2.1-2.4,3.8-3.5,5.4-3.5c1.7,0,2.9,1.5,2.9,3.6c0,3-1.6,7.6-4.1,11.9c0.5-0.3,0.9-0.4,1.5-0.4c1.5,0,2.6,1.3,2.6,2.9
				c0,1.1-0.4,1.8-1,2.7c-1.7,2.5-2.5,4-2.7,4.8c0.1-0.1,0.3-0.2,0.5-0.4c0.5-0.5,1.3-1.4,1.7-1.9c0.3-0.4,0.5-0.7,0.7-0.9
				c0.2-0.6,0.4-1.2,0.6-1.7l1.6-3.6c0.3-0.7,0.6-1.5,0.9-2.2l0.3-0.8c0.4-1.2,1.1-2.6,2.8-2.6c1.5,0,2.5,1.2,2.5,2.9
				c0,0.1,0,0.2,0,0.3c0.8-1.6,1.9-2.8,3.3-2.8c1.4,0,2.4,1.4,2.4,3.4c0,1-0.1,2-0.4,3c0.4-0.4,0.7-0.7,0.9-0.8
				c2.1-2.8,4.6-4.5,6.8-4.5c2.3,0,4,1.9,4,4.5c0,0.4,0,0.9-0.1,1.3c0.7-1.2,1.4-2.3,2-2.9c0.5-0.7,1.3-1.4,2.6-1.4
				c1.4,0,2.5,1.1,2.5,2.5c0.1-0.1,0.2-0.1,0.3-0.2c1.8-1.5,2.7-2.1,3.7-2.1c1.3,0,2.4,1.3,2.4,2.7c0,0.5-0.1,0.9-0.3,1.3
				c0.1,0,0.2,0,0.3,0c1.2,0,2.1,1.1,2.1,2.3c0,1.4-1,3-2.7,4.4c-1.7,1.3-3.3,2-4.8,2c-1.6,0-2.9-0.9-3.2-2.3
				c-1.3,1.4-2.4,3.1-3.1,4.7l-1,2.4C-122.8,410.8-123.5,411.9-125.1,411.9z M-184,396.5c-0.4,0.2-0.9,0.8-1.6,1.9
				c-1.5,2.2-2.5,4.9-2.5,6.6c0.2-0.2,0.5-0.6,0.9-1.2c0.5-1,1.3-2.7,2.4-5.1L-184,396.5z M-131.8,404.3c0,0.5,0.2,0.7,0.8,0.7
				c0.6,0,1.7-0.5,2.7-1.4c-0.9,0.5-1.9,0.7-2.9,0.7C-131.4,404.3-131.6,404.3-131.8,404.3z M-173,404.3c0,0.5,0.2,0.7,0.8,0.7
				c0.6,0,1.7-0.5,2.7-1.4c-0.9,0.5-1.9,0.7-2.9,0.7C-172.6,404.3-172.8,404.3-173,404.3z M-161.3,404.1c0,0.3,0.2,0.5,0.3,0.5
				c0,0,1.1,0,4-4.2l0.8-1.1c0-0.1,0.1-0.2,0.1-0.3C-157.6,400.8-159.2,402.4-161.3,404.1z M-141,395.8c-0.1,0.2-0.2,0.5-0.3,0.7
				l-1.2,2.6c-0.5,1-0.8,2-1,2.7c0.3-0.3,0.6-0.8,1-1.5c0.7-1.1,1.2-1.9,1.5-2.5c-0.1-0.7-0.1-1-0.1-1.4
				C-141,396.3-141,396-141,395.8z M-155.5,389.2c-0.3,0.4-0.5,0.9-0.7,1.3c0.3-0.6,0.7-1.2,1-1.8
				C-155.4,388.9-155.4,389.1-155.5,389.2z"/>
			<path class="st2" d="M-150.9,378.8c1.1,0,1.9,1,1.9,2.6c0,3.2-2,8.4-5,13.1c-2.3,3.5-4.7,6.2-8.2,9.1c0,0.2,0,0.4,0,0.5
				c0,0.8,0.6,1.5,1.3,1.5c1,0,2.6-1.5,4.8-4.6l0.8-1c0,0,0.1-0.1,0.1-0.1c0.4-0.9,0.9-1.8,1.5-2.8c1.3-2.2,2.2-3.1,3.2-3.1
				c0.9,0,1.6,0.8,1.6,1.9c0,0.7-0.2,1.2-0.9,2.2c-1.9,2.6-2.9,4.6-2.9,5.6c0,0.5,0.3,0.9,0.7,0.9c0.4,0,0.8-0.2,1.5-0.9
				c0.5-0.5,1.4-1.4,1.8-2c0.3-0.5,0.6-0.8,0.8-1c0.2-0.6,0.4-1.2,0.7-1.9l1.5-3.6c0.5-1,0.8-2,1.2-3c0.5-1.5,1-1.9,1.9-1.9
				c0.9,0,1.5,0.8,1.5,1.9c0,1-0.5,2.6-1.1,4l-1.2,2.6c-0.7,1.5-1.3,3.3-1.3,4c0,0.4,0.3,0.8,0.5,0.8c0.6,0,1.3-0.8,2.5-2.6
				c0.8-1.2,1.4-2.1,1.7-3c-0.1-0.8-0.1-1.1-0.1-1.5c0-2.9,1.6-5.9,3.2-5.9c0.8,0,1.4,1,1.4,2.4c0,1.5-0.4,3.4-1,4.7
				c0.2,0.1,0.4,0.1,0.5,0.1c0.5,0,1.1-0.3,1.7-0.8c0.6-0.5,0.9-0.8,1.1-1c1.8-2.5,4.1-4.2,6.1-4.2c1.8,0,3,1.5,3,3.5
				c0,4-3.6,8.1-7.1,8.1c-0.5,0-0.7-0.1-1.3-0.3c-0.2,0.5-0.3,0.7-0.3,1.1c0,1.1,0.7,1.8,1.8,1.8c1.6,0,4.1-1.9,5.8-4.4l1-1.5
				c0.2-0.3,0.4-0.5,0.6-0.6c0.2-0.4,0.3-0.7,0.5-1c0.8-1.7,1.9-3.4,2.6-4.2c0.6-0.8,1.2-1.1,1.9-1.1c0.9,0,1.5,0.7,1.5,1.6
				c0,0.7-0.1,1-1.2,2.4c-0.8,1.1-1.6,2.5-2,3.5l0.3-0.4c1.6-2.1,3-3.4,4.8-5c1.7-1.4,2.4-1.9,3.1-1.9c0.7,0,1.4,0.8,1.4,1.7
				c0,0.8-0.4,1.4-1.5,2.2c-1,0.9-1.7,1.7-1.7,2.1c0,0.2,0.2,0.4,0.5,0.4c0.4,0,1.3-0.6,2.3-1.6c0.8-0.8,1.1-0.9,1.5-0.9
				c0.6,0,1.1,0.6,1.1,1.3c0,1.1-0.9,2.4-2.4,3.6c-1.5,1.1-2.9,1.8-4.1,1.8c-1.3,0-2.3-0.9-2.3-2.1c0-0.7,0.2-1.2,0.6-2
				c-2.3,1.8-4.5,4.5-5.6,7l-1,2.4c-0.5,1.1-1,1.5-1.8,1.5c-1,0-1.6-0.7-1.6-1.8c0-0.3,0.1-0.7,0.2-1.2c-1.8,1.4-3.7,2.3-5.3,2.3
				c-2.6,0-4.5-2.2-4.5-5.3c0-1.1,0.2-2.2,0.5-3.4c-0.2,0-0.3,0-0.4,0c-0.5,0-1-0.1-1.6-0.4c-2.4,4.6-5.3,7.4-7.7,7.4
				c-1.3,0-2.3-1-2.8-2.4c-1.8,1.9-3.7,3-5.2,3c-1.4,0-2.5-1-3-2.5c-2.1,2.3-4,3.5-5.8,3.5c-2,0-3.4-1.4-3.8-3.8
				c-2.2,2.3-4.7,3.7-6.9,3.7c-2.2,0-3.8-1.5-4.3-3.8c-1.9,2.6-3.4,3.8-4.9,3.8c-1.5,0-2.5-1.2-2.6-3.4c-1.2,2.4-3,3.9-4.8,3.9
				c-2,0-3.4-1.9-3.4-4.7c0-3.6,1.6-7.9,4.3-11.3c1.6-2.2,4-3.6,5.9-3.6c0.9,0,1.5,0.2,2.2,0.7c1.2-2.7,1.6-3.6,3-6.5
				c1.6-3.3,2.5-4.5,3.6-4.5c0.8,0,1.5,0.8,1.5,1.8c0,0.6-0.2,1.1-0.8,2.2c-1.3,2.3-2.2,4.2-3.9,7.8c-1.5,3.1-2.7,6.2-3.5,8.4
				c-0.4,1.2-0.6,2.1-0.6,2.6c0,0.6,0.3,1,0.6,1c0.4,0,0.9-0.4,1.3-0.9c0.5-0.6,1.5-2,2-3c0.4-0.7,0.8-1.2,1.1-1.4
				c1.8-4.1,5.2-7.6,8.1-7.6c1.8,0,3,1.5,3,3.5c0,4-3.6,8.1-7.1,8.1c-0.5,0-0.7-0.1-1.3-0.3c-0.2,0.5-0.3,0.7-0.3,1.1
				c0,1.1,0.7,1.8,1.8,1.8c1.6,0,4.1-1.9,5.8-4.4l1-1.5c0.1-0.1,0.1-0.1,0.2-0.2c0.3-0.8,0.6-1.7,1-2.7c2.1-5.4,6-12.2,8.8-15.4
				C-153.6,379.7-152.2,378.8-150.9,378.8 M-160.8,398.5c2-2.1,3.3-3.8,4.7-6.2c1.9-3.1,3.6-6.8,3.6-8c0-0.3-0.1-0.5-0.3-0.5
				c-0.6,0-1.9,1.8-3.5,4.9c-0.7,1.2-1.1,2.2-2.2,4.5C-159.9,396-160.3,397.1-160.8,398.5 M-188.4,406.2c0.6,0,1.3-0.7,2-2
				c0.5-0.9,1.3-2.6,2.4-5.2l1.5-3.4c-0.3-0.2-0.5-0.3-0.8-0.3c-1.1,0-1.9,0.7-3.1,2.5c-1.6,2.4-2.7,5.3-2.7,7.2
				C-189.2,405.8-188.9,406.2-188.4,406.2 M-130.5,399.5c1.4,0,3-1.6,3-3c0-0.4-0.2-0.6-0.5-0.6c-0.7,0-2.1,1.6-3.1,3.5
				C-130.8,399.4-130.7,399.5-130.5,399.5 M-171.7,399.5c1.4,0,3-1.6,3-3c0-0.4-0.2-0.6-0.5-0.6c-0.7,0-2.1,1.6-3.1,3.5
				C-172.1,399.4-171.9,399.5-171.7,399.5 M-150.9,376.8c-1.9,0-3.8,1.2-6.1,3.8c-2.2,2.5-5,7-7.1,11.4c-0.9-1.4-2.3-2.3-4.1-2.3
				c-3.1,0-6.1,2.6-8.2,5.7c0.3-0.7,0.6-1.3,0.9-2c1.7-3.7,2.6-5.5,3.9-7.6c0.6-1.1,1-2,1-3.2c0-2.1-1.6-3.8-3.5-3.8
				c-2.6,0-3.9,2.4-5.4,5.6l-0.2,0.4c-0.9,2-1.4,3-2,4.5c-0.4-0.1-0.7-0.1-1.1-0.1c-2.6,0-5.4,1.7-7.5,4.4
				c-2.9,3.7-4.7,8.4-4.7,12.5c0,4,2.2,6.7,5.4,6.7c1.5,0,3-0.7,4.3-1.9c0.8,0.8,1.9,1.3,3.1,1.3c1.7,0,3.2-0.9,4.5-2.2
				c1.2,1.4,2.8,2.2,4.7,2.2c1.9,0,4.1-0.8,6.1-2.3c1,1.5,2.6,2.4,4.6,2.4c1.8,0,3.6-0.8,5.5-2.3c0.9,0.8,2.1,1.3,3.3,1.3
				c1.5,0,3.1-0.7,4.7-1.9c0.9,0.8,2,1.3,3.2,1.3c2.4,0,5-1.8,7.4-5c0.3,3.8,2.9,6.5,6.5,6.5c1.2,0,2.5-0.3,3.8-0.9
				c0.6,1,1.7,1.7,3.1,1.7c2.4,0,3.3-2,3.6-2.7l0,0l0,0l1-2.4c0.5-1.1,1.2-2.2,2-3.3c0.8,0.9,2,1.5,3.4,1.5c1.7,0,3.5-0.7,5.4-2.2
				c2-1.6,3.1-3.5,3.1-5.2c0-1.5-0.9-2.8-2.2-3.2c0-0.1,0-0.3,0-0.4c0-1.9-1.6-3.7-3.4-3.7c-1.2,0-2.2,0.6-3.4,1.6
				c-0.6-1.1-1.8-1.8-3.1-1.8c-1.7,0-2.7,1-3.4,1.8c-0.1,0.1-0.2,0.2-0.3,0.4c-0.6-2.2-2.4-3.7-4.7-3.7c-2.1,0-4.4,1.2-6.4,3.4
				c0,0,0,0,0-0.1c0-3-1.7-4.4-3.4-4.4c-1.1,0-2,0.5-2.8,1.3c-0.6-1.1-1.7-1.8-3-1.8c-2.6,0-3.4,2.3-3.7,3.2
				c-0.1,0.2-0.2,0.5-0.3,0.7c-0.2,0.6-0.5,1.3-0.8,1.9c-0.5-1.2-1.6-2-2.8-2.1c2-3.9,3.2-7.8,3.2-10.5
				C-147,378.7-148.6,376.8-150.9,376.8L-150.9,376.8z"/>
		</g>
		<g id="XMLID_2134_">
			<path class="st0" d="M-72.8,411c-2.6,0-4.4-2.3-4.4-5.7c0-3.1,1.3-7.1,3.5-10.3c2.2-3.4,5.1-5.5,7.5-5.5c2.4,0,3.9,2.1,3.9,5.2
				c0,2.1-0.5,3.8-1.5,5.5c0,0.1,0,0.2,0,0.2c0,1.6-0.8,3.8-2.1,5.8C-68,409.3-70.4,411-72.8,411z M-68.2,397
				c-0.3,0.3-0.6,0.8-0.9,1.3c-1.4,2.2-2.3,4.5-2.3,5.7c0,0,0,0,0,0c0.3-0.2,0.8-0.8,1.5-2.2c-0.2-0.3-0.3-0.7-0.3-1.1
				c0-0.7,0.3-1.1,0.8-1.6C-69,398.6-68.5,397.7-68.2,397z"/>
			<path class="st2" d="M-66.3,390.5c1.8,0,2.9,1.7,2.9,4.2c0,2-0.5,3.6-1.5,5.2c0,0.2,0,0.4,0,0.5c0,1.4-0.7,3.4-2,5.2
				c-1.8,2.7-4,4.3-6,4.3c-2,0-3.4-1.9-3.4-4.7c0-3,1.3-6.7,3.3-9.7C-70.9,392.5-68.3,390.5-66.3,390.5 M-71.7,405.2
				c0.9,0,1.9-1.1,2.9-3.4c-0.4-0.5-0.5-0.7-0.5-1c0-0.3,0.1-0.5,0.5-0.9c1-1.1,1.9-3.1,1.9-4.1c0-0.4-0.2-0.6-0.5-0.6
				c-0.6,0-1.5,1-2.6,2.7c-1.5,2.3-2.5,4.8-2.5,6.3C-72.5,404.7-72.2,405.2-71.7,405.2 M-66.3,388.5c-2.7,0-5.9,2.2-8.3,6
				c-2.3,3.4-3.7,7.5-3.7,10.8c0,3.9,2.3,6.7,5.4,6.7c2.7,0,5.5-1.8,7.7-5.2c1.4-2.2,2.3-4.5,2.3-6.3c1-1.8,1.5-3.6,1.5-5.7
				C-61.4,390.5-63.8,388.5-66.3,388.5L-66.3,388.5z"/>
		</g>
		<g id="XMLID_2159_">
			<path class="st0" d="M-105.3,426.5c-2.8,0-5.2-2.5-5.2-5.5c0-2.1,0.9-4.3,2.7-6.2c1.5-1.6,3-2.6,6.3-4.2c0.1-0.1,0.2-0.1,0.3-0.2
				c-2-0.2-3.5-2.2-3.5-4.8c0-3.2,1.6-7.1,4.4-10.5c3-3.7,5.7-5.4,8.3-5.4c2.3,0,4.1,1.9,4.1,4.4c0,0.8-0.2,1.9-0.5,2.9
				c0.2,0.3,0.3,0.6,0.3,1.1c0,0.5-0.2,1-0.7,1.9l-0.2,0.3c-0.5,0.9-0.7,1.3-1,1.8c0.6-0.7,1.2-1.5,1.7-2.3c0.2-0.3,0.4-0.5,0.5-0.7
				c0.6-1.4,1.3-2.8,2.1-4c2.2-3.4,5.1-5.5,7.5-5.5c2.4,0,3.9,2.1,3.9,5.2c0,2.1-0.5,3.8-1.5,5.5c0,0.1,0,0.2,0,0.2
				c0,1.6-0.8,3.8-2.1,5.8c-2,3.1-4.5,4.8-6.8,4.8c-1.7,0-3.2-1.1-3.9-2.8c-1.4,1.4-3.1,2.7-5.6,4.3c0,0.1-0.1,0.1-0.1,0.1l-1.4,3.8
				c-1.4,3.7-2.6,5.8-4,7.3C-101.7,425.5-103.6,426.5-105.3,426.5z M-102.6,417.6c-0.1,0.1-0.3,0.2-0.4,0.4c-0.8,0.7-1.2,1.5-1.4,2
				c0.2-0.2,0.6-0.5,1.1-1.3C-103,418.3-102.8,418-102.6,417.6z M-80.2,397c-0.3,0.3-0.6,0.8-0.9,1.3c-1.4,2.2-2.3,4.5-2.3,5.7
				c0,0,0,0,0,0c0.3-0.2,0.8-0.8,1.5-2.2c-0.2-0.3-0.3-0.7-0.3-1.1c0-0.7,0.3-1.1,0.8-1.6C-81,398.6-80.5,397.7-80.2,397z
				 M-94,396.5c-0.4,0.3-1,0.9-1.8,2c-1.5,2-2.6,4.2-2.8,5.3c0.6-0.5,1.7-1.6,2.6-3.1c-0.1-0.2-0.1-0.4-0.1-0.6
				c0-0.6,0.3-1.1,0.9-1.7C-94.6,397.8-94.2,397.1-94,396.5z"/>
			<path class="st2" d="M-78.2,390.5c1.8,0,2.9,1.7,2.9,4.2c0,2-0.5,3.6-1.5,5.2c0,0.2,0,0.4,0,0.5c0,1.4-0.7,3.4-2,5.2
				c-1.8,2.7-4,4.3-6,4.3c-1.8,0-3.1-1.6-3.4-3.9c-1.7,2-3.6,3.5-6.7,5.5l-0.2,0.1c-0.1,0.3-0.2,0.4-0.2,0.4l-1.5,3.9
				c-1.3,3.4-2.5,5.5-3.8,6.9c-1.6,1.6-3.2,2.5-4.8,2.5c-2.3,0-4.2-2-4.2-4.5c0-1.9,0.9-3.8,2.4-5.5c1.4-1.5,2.7-2.4,6-4
				c0.7-0.4,1.7-0.9,2.6-1.3l0.3-0.1l0.1-0.2c0.2-0.6,0.3-0.9,0.4-1.1c0.4-1,0.4-1,0.5-1.6c-1,1.3-2.5,2.3-3.6,2.3
				c-1.6,0-2.9-1.6-2.9-3.8c0-3,1.5-6.6,4.1-9.9c2.8-3.4,5.3-5.1,7.5-5.1c1.7,0,3.1,1.5,3.1,3.4c0,0.9-0.3,2.1-0.6,3.1
				c0.3,0.3,0.4,0.6,0.4,0.9c0,0.3-0.1,0.6-0.5,1.4c-1,1.9-1,1.8-2.1,4.2c-0.8,1.7-1,2.3-1.4,3.2c1.8-1.5,4.1-4,5.7-6.5
				c0.2-0.3,0.4-0.5,0.6-0.7c0.5-1.4,1.2-2.8,2.1-4C-82.8,392.5-80.2,390.5-78.2,390.5 M-83.7,405.2c0.9,0,1.9-1.1,2.9-3.4
				c-0.4-0.5-0.5-0.7-0.5-1c0-0.3,0.1-0.5,0.5-0.9c1-1.1,1.9-3.1,1.9-4.1c0-0.4-0.2-0.6-0.5-0.6c-0.6,0-1.5,1-2.6,2.7
				c-1.5,2.3-2.5,4.8-2.5,6.3C-84.5,404.7-84.2,405.2-83.7,405.2 M-99,404.9c0.9,0,2.8-2.1,4.1-4.4c-0.2-0.3-0.3-0.4-0.3-0.6
				c0-0.2,0.1-0.4,0.6-1c1-1,1.6-2.2,1.6-3.2c0-0.5-0.2-0.7-0.5-0.7c-0.7,0-1.8,1-3.2,2.7c-1.7,2.2-3.1,4.9-3.1,6.2
				C-99.6,404.5-99.3,404.9-99,404.9 M-104.7,421.1c0.6,0,1.4-0.6,2.2-1.9c0.6-0.9,1-1.7,2.1-3.9l0.2-0.5l-0.3,0.2
				c-1.9,1.1-2.5,1.5-3.2,2.2c-1,0.9-1.7,2.1-1.7,3.1C-105.4,420.7-105.1,421.1-104.7,421.1 M-78.2,388.5c-2.7,0-5.9,2.2-8.3,6
				c-0.2,0.3-0.4,0.6-0.6,0.9c0.1-0.4,0.1-0.9,0.1-1.3c0-3-2.2-5.4-5.1-5.4c-2.9,0-5.9,1.9-9.1,5.8c-2.9,3.6-4.6,7.7-4.6,11.2
				c0,2.1,0.8,3.8,2.1,4.9c-2.3,1.2-3.6,2.2-5,3.6c-1.9,2.1-3,4.5-3,6.9c0,3.6,2.8,6.5,6.2,6.5c2.1,0,4.2-1,6.2-3.1
				c1.5-1.6,2.8-3.9,4.3-7.6l1.4-3.7c1.9-1.2,3.3-2.3,4.5-3.4c1,1.4,2.4,2.2,4.1,2.2c2.7,0,5.5-1.8,7.7-5.2c1.4-2.2,2.3-4.5,2.3-6.3
				c1-1.8,1.5-3.6,1.5-5.7C-73.3,390.5-75.8,388.5-78.2,388.5L-78.2,388.5z"/>
		</g>
		<g id="XMLID_2172_">
			<path class="st0" d="M-61,411.7c-2.6,0-4.4-2.3-4.4-5.7c0-3.9,1.7-8.3,4.5-11.9c1.8-2.4,4.4-4,6.7-4c0.6,0,1.2,0.1,1.7,0.3
				c0.9-1.9,1.3-2.9,2.4-5.3l0.1-0.3c1.6-3.3,2.7-5,4.5-5c1.4,0,2.5,1.2,2.5,2.8c0,0.9-0.3,1.6-0.9,2.7c-1.2,2.2-2.1,4-3.9,7.7
				c-1.4,2.9-2.6,5.9-3.4,8.3c-0.3,0.8-0.4,1.5-0.5,2c0.1-0.1,0.1-0.1,0.2-0.2c0.4-0.5,1.4-1.9,1.9-2.9c0.8-1.3,1.5-2.3,2.8-2.3
				c1.2,0,2.1,1,2.1,2.3c0,1.4-1.5,4.2-3,6.4c-2.2,3.1-4,4.5-5.9,4.5c-1.4,0-2.4-0.7-3-1.9C-57.9,410.9-59.4,411.7-61,411.7z
				 M-55.3,396.5c-0.4,0.2-0.9,0.8-1.6,1.9c-1.5,2.2-2.5,4.9-2.5,6.6c0.2-0.2,0.5-0.6,0.9-1.2c0.5-0.9,1.3-2.7,2.4-5.1L-55.3,396.5z
				"/>
			<path class="st2" d="M-45.5,380.8c0.8,0,1.5,0.8,1.5,1.8c0,0.6-0.2,1.1-0.8,2.2c-1.3,2.3-2.2,4.2-3.9,7.8
				c-1.5,3.1-2.7,6.2-3.5,8.4c-0.4,1.2-0.6,2.1-0.6,2.6c0,0.6,0.3,1,0.6,1c0.4,0,0.9-0.4,1.3-0.9c0.5-0.6,1.5-2,2-3
				c0.9-1.4,1.3-1.8,1.9-1.8c0.6,0,1.1,0.6,1.1,1.3c0,1-1.2,3.5-2.8,5.9c-2,2.8-3.6,4.1-5.1,4.1c-1.5,0-2.5-1.2-2.6-3.4
				c-1.2,2.4-3,3.9-4.8,3.9c-2,0-3.4-1.9-3.4-4.7c0-3.6,1.6-7.9,4.3-11.3c1.6-2.2,4-3.6,5.9-3.6c0.9,0,1.5,0.2,2.2,0.7
				c1.2-2.7,1.6-3.6,3-6.5C-47.5,382-46.6,380.8-45.5,380.8 M-59.7,406.2c0.6,0,1.3-0.7,2-2c0.5-0.9,1.3-2.6,2.4-5.2l1.5-3.4
				c-0.3-0.2-0.5-0.3-0.8-0.3c-1.1,0-1.9,0.7-3.1,2.5c-1.6,2.4-2.7,5.3-2.7,7.2C-60.4,405.8-60.1,406.2-59.7,406.2 M-45.5,378.8
				c-2.6,0-3.9,2.4-5.4,5.6l-0.1,0.3c-0.9,2-1.4,3.1-2.1,4.6c-0.4-0.1-0.7-0.1-1.1-0.1c-2.6,0-5.4,1.7-7.5,4.4
				c-2.9,3.7-4.7,8.4-4.7,12.5c0,4,2.2,6.7,5.4,6.7c1.5,0,3-0.7,4.3-1.9c0.8,0.8,1.9,1.3,3.1,1.3c2.9,0,5.1-2.6,6.7-4.9
				c0.3-0.5,3.2-4.7,3.2-7c0-1.8-1.4-3.3-3.1-3.3c-0.8,0-1.4,0.3-1.9,0.6c0.6-1.4,1.2-2.8,1.8-4.2c1.7-3.7,2.6-5.5,3.9-7.6
				c0.6-1.1,1-2,1-3.2C-41.9,380.5-43.5,378.8-45.5,378.8L-45.5,378.8z"/>
		</g>
		<g id="XMLID_2189_">
			<path class="st0" d="M-11.8,426.3c-3,0-5.2-2.3-5.2-5.4c0-2.5,1.2-5,3.5-7.2c0.8-0.7,1.8-1.5,3.4-2.4c0.5-0.3,1.2-0.7,2.1-1.2
				c0,0,0,0,0,0c-1.2,0-2.3-0.6-2.9-1.7c-1.2,0.8-2.4,1.3-3.6,1.3c-1.2,0-2.3-0.7-2.9-1.9c-1.3,1.4-2.6,2.1-4.1,2.1
				c-1.2,0-2.2-0.6-3-1.6c-1.6,1.9-3.1,2.8-4.6,2.8c-1.4,0-2.4-0.7-3-1.9c-1.3,1.6-2.8,2.4-4.4,2.4c-2.6,0-4.4-2.3-4.4-5.7
				c0-3.9,1.7-8.3,4.5-11.9c1.8-2.4,4.4-4,6.7-4c0.6,0,1.2,0.1,1.7,0.3c0.9-1.9,1.3-3,2.4-5.4l0.1-0.2c1.6-3.3,2.8-5,4.6-5
				c1.4,0,2.5,1.2,2.5,2.8c0,0.9-0.3,1.6-0.9,2.7c-1.2,2.2-2.1,4-3.9,7.7c-1.4,2.9-2.6,5.9-3.4,8.3c-0.3,0.8-0.4,1.5-0.5,2
				c0.1-0.1,0.1-0.1,0.2-0.2c0.4-0.5,1.4-1.9,1.9-2.9c0.3-0.5,0.6-0.9,0.9-1.2c0.5-1.2,1.1-2.4,1.8-3.5c2.4-3.5,4.9-5.4,7.4-5.4
				c2.5,0,4.3,2,4.3,4.8c0,0.8-0.1,1.4-0.3,2c0.4,0.5,0.6,0.9,0.6,1.5c0,0.7-0.2,1.2-0.7,1.8c-0.8,1.2-1.1,2.1-1.3,2.6
				c0.4-0.2,1.1-0.9,2.4-2.9c0.6-1.1,1.4-2.3,2.3-3.5c3-3.8,4.5-4.3,5.4-4.3c1.4,0,2.4,1.1,2.4,2.6c0,1.3-0.6,2.2-1.8,3.3
				c-2,2.1-3.2,3.8-3.8,4.8c0.2-0.2,0.4-0.4,0.7-0.6c1.2-1.2,2.9-3.4,4.5-5.7c1.8-2.6,2.1-3,2.7-3.4c0.4-0.4,1-0.8,1.9-0.8
				c1.4,0,2.5,1.2,2.5,2.7c0,0.6-0.2,1.3-0.5,1.9c-0.1,0.3-0.4,0.7-0.6,1.2L5,399.5c-0.4,0.7-0.8,1.6-1.3,2.5
				c0.7-0.8,1.3-1.6,1.7-2.2c0.6-0.9,1.2-1.7,2.3-1.7c0.4,0,0.8,0.1,1.1,0.3c-0.3-0.8-0.4-1.6-0.4-2.5c0-2.7,1.2-4.8,3.7-6.6
				c2-1.3,3.8-2,5.8-2c3.2,0,5.3,2.1,5.3,5.2c0,3.4-3.3,7.3-6.1,7.3c-0.3,0-0.6-0.1-0.9-0.2c1.1,1.7,1.5,3,1.5,4.5
				c0,3.6-2.9,6.4-6.6,6.4c-2.3,0-4.4-1.1-5.5-3.1c-1.6,1.8-3.5,3.2-6.2,4.8l-0.2,0.1c-0.5,1.4-1.7,4.3-2.3,5.7
				C-5.5,423.6-8.4,426.3-11.8,426.3z M-8.7,416.9c-0.2,0.2-0.4,0.3-0.5,0.4c-1.3,1.1-1.8,2.1-1.9,2.6
				C-10.8,419.9-10.1,419.5-8.7,416.9z M-30.9,396.5c-0.4,0.2-0.9,0.8-1.6,1.9c-1.5,2.2-2.5,4.9-2.5,6.6c0.2-0.2,0.5-0.6,0.9-1.2
				c0.5-0.9,1.3-2.7,2.4-5.1L-30.9,396.5z M9.9,402.7c0,0.1,0.1,0.3,0.1,0.5c0.1,0.4,0.4,1.2,1.2,1.2c0.4,0,0.7-0.2,0.7-0.6
				c0-0.3,0-0.4-1.5-2.5c-0.2-0.2-0.3-0.4-0.5-0.6C10,400.7,9.9,402.7,9.9,402.7L9.9,402.7z M-16.2,397c-0.4,0.3-1.1,0.9-1.9,2.1
				c-0.8,1.4-1.4,2.9-1.5,3.7c0.3-0.2,0.6-0.6,1.1-1.3c0,0,0,0,0-0.1c0-0.1,0-0.2,0-0.4c0-0.4,0.2-0.9,0.5-1.2l0.7-0.9
				C-16.8,398.5-16.3,397.6-16.2,397z M17.1,393.4c-1.5,0.1-3,1.5-3,2.5c0,0.3,0,0.6,0.2,1c0.1-0.9,0.5-1.7,1.3-2.2l0.9-0.5
				C16.9,393.9,17.1,393.5,17.1,393.4z"/>
			<path class="st2" d="M-21.1,380.8c0.8,0,1.5,0.8,1.5,1.8c0,0.6-0.2,1.1-0.8,2.2c-1.3,2.3-2.2,4.2-3.9,7.8
				c-1.5,3.1-2.7,6.2-3.5,8.4c-0.4,1.2-0.6,2.1-0.6,2.6c0,0.6,0.3,1,0.6,1s0.9-0.4,1.3-0.9c0.5-0.6,1.5-2,2-3c0.3-0.6,0.6-1,0.9-1.2
				c0.5-1.2,1.1-2.4,1.8-3.4c2.1-3.2,4.5-5,6.6-5c2,0,3.3,1.5,3.3,3.8c0,0.8-0.1,1.4-0.5,2.3c0.6,0.6,0.7,0.8,0.7,1.2
				c0,0.4-0.1,0.6-0.5,1.2c-0.9,1.4-1.5,2.7-1.5,3.5c0,0.5,0.3,0.8,0.8,0.8c0.9,0,1.9-1.1,3.5-3.5c0.6-1.1,1.4-2.3,2.3-3.5
				c2-2.5,3.6-3.9,4.6-3.9c0.8,0,1.4,0.7,1.4,1.6c0,0.9-0.3,1.5-1.5,2.6c-2.5,2.7-4.5,5.5-4.5,6.6c0,0.3,0.3,0.6,0.5,0.6
				c0.5,0,1.4-0.7,2.3-1.6c1.3-1.4,3.1-3.7,4.6-5.8c1.8-2.5,2-2.8,2.5-3.2c0.5-0.4,0.8-0.6,1.3-0.6c0.9,0,1.5,0.8,1.5,1.7
				c0,0.4-0.1,0.9-0.4,1.5c-0.2,0.4-0.7,1.3-1.4,2.6c-0.9,1.6-2.2,4.4-3.5,7.2l-0.1,0.4c0.9-0.7,1.6-1.3,2.5-2.3
				c1.3-1.3,2.5-3,3.2-3.9c0.6-1,1-1.3,1.5-1.3c0.6,0,1,0.4,1.1,1c0.1,0.2,0.2,0.4,0.2,0.6l-0.1,2c0,0.1,0.1,0.3,0.2,0.7
				c0.3,1.2,1.1,2,2.1,2c1,0,1.7-0.7,1.7-1.6c0-0.7-0.1-0.9-1.6-3.1c-1.5-2-1.9-3.1-1.9-4.8c0-2.4,1-4.2,3.3-5.8
				c1.7-1.2,3.4-1.8,5.2-1.8c2.6,0,4.3,1.6,4.3,4.2c0,2.8-2.8,6.3-5.1,6.3c-1,0-1.7-0.8-1.7-1.8c0-0.7,0.3-1.2,0.9-1.6l0.9-0.5
				c0.6-0.4,1-1,1-1.6s-0.5-0.9-1-0.9c-1.9,0-3.9,1.8-3.9,3.4c0,1,0.4,1.8,1.7,3.6c1.3,1.9,1.9,3.2,1.9,4.7c0,3-2.5,5.4-5.6,5.4
				c-2.5,0-4.5-1.5-5.3-3.9c-1.9,2.3-3.8,3.9-7,5.8l-0.4,0.3l-0.1,0.3c-0.5,1.3-1.7,4.3-2.3,5.7c-2.2,5-4.8,7.6-7.8,7.6
				c-2.5,0-4.2-1.8-4.2-4.4c0-2.2,1.1-4.5,3.2-6.4c0.8-0.7,1.8-1.5,3.2-2.3c0.9-0.5,2.1-1.1,4.1-2.2l1-0.5c0.2-0.5,0.4-0.8,1-2.1
				c0.5-1.1,0.7-1.7,1.1-2.7c-1.8,2.9-3.9,4.5-5.7,4.5c-1.2,0-2.2-0.9-2.5-2.3c-1.4,1.2-2.7,1.8-4,1.8c-1.3,0-2.4-1.2-2.4-2.7
				c0-0.2,0-0.3,0-0.5c-1.5,2.3-3,3.4-4.6,3.4c-1.3,0-2.3-1-2.7-2.5c-1.8,2.5-3.3,3.6-4.8,3.6c-1.5,0-2.5-1.2-2.6-3.4
				c-1.2,2.4-3,3.9-4.8,3.9c-2,0-3.4-1.9-3.4-4.7c0-3.6,1.6-7.9,4.3-11.3c1.6-2.2,4-3.6,5.9-3.6c0.9,0,1.5,0.2,2.2,0.7
				c1.2-2.7,1.6-3.6,3-6.5C-23.1,382-22.2,380.8-21.1,380.8 M-35.3,406.2c0.6,0,1.3-0.7,2-2c0.5-0.9,1.3-2.6,2.4-5.2l1.5-3.4
				c-0.3-0.2-0.5-0.3-0.8-0.3c-1.1,0-1.9,0.7-3.1,2.5c-1.6,2.4-2.7,5.3-2.7,7.2C-36,405.8-35.8,406.2-35.3,406.2 M-19.9,404
				c0.7,0,1.2-0.5,2.3-1.9c0-0.1,0.1-0.2,0.3-0.4c-0.1-0.3-0.1-0.5-0.1-0.6c0-0.2,0.1-0.4,0.2-0.6l0.7-0.9c0.7-0.8,1.4-2.3,1.4-3
				c0-0.5-0.3-0.8-0.7-0.8c-0.8,0-2,1.1-3,2.7c-1,1.6-1.7,3.5-1.7,4.5C-20.6,403.6-20.3,404-19.9,404 M-11.2,421
				c1.3,0,2.7-1.9,4.5-6c0.1-0.2,0.2-0.4,0.3-0.7c-1.6,0.9-2.8,1.7-3.6,2.4c-1.4,1.2-2.2,2.4-2.2,3.4C-12.1,420.6-11.7,421-11.2,421
				 M-21.1,378.8c-2.6,0-3.9,2.4-5.4,5.6l-0.1,0.2c-0.9,2.1-1.4,3.1-2.1,4.6c-0.4-0.1-0.7-0.1-1.1-0.1c-2.6,0-5.4,1.7-7.5,4.4
				c-2.9,3.7-4.7,8.4-4.7,12.5c0,4,2.2,6.7,5.4,6.7c1.5,0,3-0.7,4.3-1.9c0.8,0.8,1.9,1.3,3.1,1.3c1.8,0,3.3-1,4.6-2.3
				c0.8,0.7,1.8,1.1,3,1.1c1.4,0,2.7-0.5,4-1.6c0.8,0.8,1.9,1.3,3,1.3c1.2,0,2.3-0.3,3.4-0.9c0.2,0.2,0.4,0.4,0.7,0.6
				c0,0-0.1,0-0.1,0.1c-1.6,1-2.7,1.8-3.5,2.5c-2.5,2.3-3.8,5.1-3.8,7.9c0,3.6,2.7,6.4,6.2,6.4c3.8,0,7.1-2.9,9.7-8.8
				c0.5-1.3,1.6-3.9,2.2-5.4c2.3-1.4,4-2.7,5.5-4.1c1.4,1.6,3.4,2.5,5.6,2.5c4.2,0,7.6-3.3,7.6-7.4c0-1.1-0.3-2.2-0.8-3.4
				c3.2-0.6,6.3-4.6,6.3-8.2c0-3.7-2.5-6.2-6.3-6.2c-2.1,0-4.2,0.7-6.3,2.2c-2.1,1.5-3.4,3.2-3.9,5.2c-0.5-1.4-1.8-2.4-3.3-2.4
				c-1.2,0-2,0.6-2.6,1.1c-0.3,0.2-0.5,0.5-0.9,0.9c-0.5-1.3-1.7-2.2-3.2-2.2c-1.8,0-3.7,1.4-6.2,4.6c-0.4,0.5-0.8,1-1.1,1.6
				c-0.1-0.2-0.2-0.4-0.3-0.6c0.1-0.6,0.2-1.1,0.2-1.8c0-3.4-2.2-5.8-5.3-5.8c-2.7,0-5.5,1.9-7.9,5.4c0.2-0.4,0.3-0.7,0.5-1.1
				c1.7-3.7,2.6-5.5,3.8-7.6c0.6-1.1,1-2,1-3.2C-17.6,380.5-19.1,378.8-21.1,378.8L-21.1,378.8z"/>
		</g>
	</g>
</g>
</svg>
