<?xml version="1.0" encoding="utf-8"?>
<!-- Generator: Adobe Illustrator 19.0.0, SVG Export Plug-In . SVG Version: 6.00 Build 0)  -->
<svg version="1.1" id="圖層_1" xmlns="http://www.w3.org/2000/svg" xmlns:xlink="http://www.w3.org/1999/xlink" x="0px" y="0px"
	 viewBox="0 0 190 36.4" style="enable-background:new 0 0 190 36.4;" xml:space="preserve">
<style type="text/css">
	.st0{fill:#454749;}
	.st1{fill:#D6001C;}
</style>
<g id="header_x5F_logo_2_">
	<g id="XMLID_2570_">
		<path id="XMLID_2583_" class="st0" d="M137.6,16.5h-0.2v-0.2v-5.7l0-0.2h0.2h3.2l1.1-4.1V3.9l-6.8,0h-0.3l0.1-0.2l1-3.7l-5,0
			l-2.3,9l0,0.1h-0.2H121h-0.2V9V3.9V3.7h0.2l7.3,0l1-3.7l-5.5,0l-0.4,1.1l0,0.1h-0.1l-6.2,0l-1.1,4.1l0,16.2v0l0,0l-0.9,4h5
			l0.9-3.7l0-10.1v-0.2h0.2h1.8h0.2v0.2l0,13.8h9.8l2.5-4.4l0.2-0.3l0.2,0.3l2.1,4.4l5.3,0l-4.4-9.1H137.6z M132.3,11.1v5.8v0l0,0
			l-4.1,7.6l-0.4,0.7v-0.8l0-12.6v-0.2h0.2h0.9v-0.6v-0.2l0.2,0h3h0.2V11.1z M137.2,6.8l0,2.2v0.2H137h-3.3h-0.3l0.1-0.2l0.6-2.2
			l0-0.1h0.2h2.7h0.2V6.8z"/>
		<path id="XMLID_2577_" class="st0" d="M180.3,1.9l0.1-0.3L181,0l-5.2,0l-2.5,7.2l0,0.1h-0.1h-0.9H172V7.1l0-4.2V2.7h0.2l1.5,0V0.3
			l-9.4,0l-1.1,4.1l0,21.2h10.1v-2.4h-1H172V23v-4.7V18h0.2h0.8V7.9V7.7h0.2h1.5h0.2v0.2v5.9h13.9V6.1l-9.8,0h-0.3l0.1-0.3l0.6-1.5
			l0-0.1h0.1l10.4,0V1.9l-9.4,0H180.3z M167.6,7.1V2.9V2.7h0.2h1.3h0.2v0.2v4.2v0.2h-0.2h-1.3h-0.2V7.1z M169.3,18.2V23v0.2h-0.2
			h-1.3h-0.2V23v-4.7V18h0.2h1.3h0.2V18.2z M169.5,9.9v5.5v0.2h-0.2h-1.5h-0.2v-0.2V9.9V9.7h0.2h1.5h0.2V9.9z M179.6,11.3V8.6V8.4
			h0.2l4,0h0.2v0.2v2.7v0.2h-0.2h-4h-0.2V11.3z"/>
		<path id="XMLID_2574_" class="st0" d="M181.2,15.1h-7v10.5h7L181.2,15.1z M178.4,17.6v5.4v0.2h-0.2h-0.9h-0.2v-0.2v-5.4v-0.2h0.2
			h0.9h0.2V17.6z"/>
		<path id="XMLID_2571_" class="st0" d="M189.5,21.5v-6.4h-7v10.5h5.9L189.5,21.5z M186.7,17.6v5.4v0.2h-0.2h-0.9h-0.2v-0.2v-5.4
			v-0.2h0.2h0.9h0.2V17.6z"/>
	</g>
	<g id="XMLID_2566_">
		<path id="XMLID_2569_" class="st1" d="M31.1,0.1H0V9h10.8v27.2h9.5c0.9,0,1.7-0.8,1.7-1.7V9h9.1c0.9,0,1.7-0.8,1.7-1.7V1.8
			C32.8,0.8,32,0.1,31.1,0.1z"/>
		<path id="XMLID_2568_" class="st1" d="M100.8,27.3H86.5V1.7c0-0.9-0.8-1.7-1.7-1.7h-9.5v36.2h25.5c0.9,0,1.7-0.8,1.7-1.7V29
			C102.5,28.1,101.7,27.3,100.8,27.3z"/>
		<path id="XMLID_2567_" class="st1" d="M67.9,0h-9.5v13.4h-11V1.7c0-0.9-0.8-1.7-1.7-1.7h-9.5v36.2h9.5c0.9,0,1.7-0.8,1.7-1.7V22.4
			h11v13.8h9.5c0.9,0,1.7-0.8,1.7-1.7V1.7C69.6,0.8,68.9,0,67.9,0z"/>
	</g>
	<g id="XMLID_2550_">
		<path id="XMLID_2564_" class="st0" d="M114.9,30.8v-1.2h6.1v1.2h-2.2v5.5h-1.6v-5.5H114.9z"/>
		<path id="XMLID_2561_" class="st0" d="M120.4,32.9c0-0.3,0.1-0.6,0.3-0.8c0.2-0.2,0.3-0.4,0.6-0.5c0.2-0.1,0.5-0.2,0.8-0.3
			c0.3-0.1,0.6-0.1,0.9-0.1c0.3,0,0.5,0,0.8,0.1c0.3,0,0.5,0.1,0.8,0.2c0.2,0.1,0.4,0.2,0.6,0.4c0.1,0.2,0.2,0.4,0.2,0.7v2.5
			c0,0.2,0,0.4,0,0.6c0,0.2,0.1,0.4,0.1,0.5H124c0-0.1-0.1-0.2-0.1-0.2c0-0.1,0-0.2,0-0.2c-0.2,0.2-0.5,0.4-0.8,0.5
			c-0.3,0.1-0.6,0.1-1,0.1c-0.3,0-0.5,0-0.7-0.1c-0.2-0.1-0.4-0.1-0.6-0.3c-0.2-0.1-0.3-0.3-0.4-0.5c-0.1-0.2-0.1-0.4-0.1-0.6
			c0-0.3,0.1-0.5,0.2-0.7c0.1-0.2,0.2-0.3,0.4-0.4c0.2-0.1,0.4-0.2,0.6-0.2c0.2-0.1,0.4-0.1,0.7-0.1c0.2,0,0.4-0.1,0.7-0.1
			c0.2,0,0.4,0,0.6-0.1s0.3-0.1,0.4-0.2c0.1-0.1,0.1-0.2,0.1-0.3c0-0.1,0-0.3-0.1-0.3c-0.1-0.1-0.1-0.2-0.2-0.2
			c-0.1,0-0.2-0.1-0.3-0.1c-0.1,0-0.2,0-0.4,0c-0.3,0-0.5,0.1-0.7,0.2c-0.2,0.1-0.3,0.3-0.3,0.6H120.4z M123.8,33.8
			c-0.1,0.1-0.1,0.1-0.2,0.1c-0.1,0-0.2,0.1-0.3,0.1c-0.1,0-0.2,0-0.3,0c-0.1,0-0.2,0-0.4,0c-0.1,0-0.2,0-0.3,0.1
			c-0.1,0-0.2,0.1-0.3,0.1c-0.1,0.1-0.1,0.1-0.2,0.2s-0.1,0.2-0.1,0.3c0,0.1,0,0.2,0.1,0.3s0.1,0.1,0.2,0.2c0.1,0,0.2,0.1,0.3,0.1
			c0.1,0,0.2,0,0.3,0c0.3,0,0.5,0,0.7-0.1c0.2-0.1,0.3-0.2,0.4-0.3c0.1-0.1,0.1-0.2,0.1-0.4c0-0.1,0-0.2,0-0.3V33.8z"/>
		<path id="XMLID_2558_" class="st0" d="M126.5,30.6v-1.1h1.5v1.1H126.5z M127.9,31.4v4.9h-1.5v-4.9H127.9z"/>
		<path id="XMLID_2556_" class="st0" d="M133.7,36.2l-1-3.3h0l-0.9,3.3h-1.5l-1.7-4.9h1.6l1,3.3h0l0.9-3.3h1.4l0.9,3.3h0l1-3.3h1.5
			l-1.7,4.9H133.7z"/>
		<path id="XMLID_2553_" class="st0" d="M137.5,32.9c0-0.3,0.1-0.6,0.3-0.8c0.2-0.2,0.3-0.4,0.6-0.5c0.2-0.1,0.5-0.2,0.8-0.3
			c0.3-0.1,0.6-0.1,0.9-0.1c0.3,0,0.5,0,0.8,0.1c0.3,0,0.5,0.1,0.8,0.2c0.2,0.1,0.4,0.2,0.6,0.4c0.1,0.2,0.2,0.4,0.2,0.7v2.5
			c0,0.2,0,0.4,0,0.6c0,0.2,0.1,0.4,0.1,0.5H141c0-0.1-0.1-0.2-0.1-0.2c0-0.1,0-0.2,0-0.2c-0.2,0.2-0.5,0.4-0.8,0.5
			c-0.3,0.1-0.6,0.1-1,0.1c-0.3,0-0.5,0-0.7-0.1c-0.2-0.1-0.4-0.1-0.6-0.3c-0.2-0.1-0.3-0.3-0.4-0.5c-0.1-0.2-0.1-0.4-0.1-0.6
			c0-0.3,0.1-0.5,0.2-0.7c0.1-0.2,0.2-0.3,0.4-0.4c0.2-0.1,0.4-0.2,0.6-0.2c0.2-0.1,0.4-0.1,0.7-0.1c0.2,0,0.4-0.1,0.7-0.1
			c0.2,0,0.4,0,0.6-0.1c0.2,0,0.3-0.1,0.4-0.2c0.1-0.1,0.1-0.2,0.1-0.3c0-0.1,0-0.3-0.1-0.3c-0.1-0.1-0.1-0.2-0.2-0.2
			c-0.1,0-0.2-0.1-0.3-0.1c-0.1,0-0.2,0-0.4,0c-0.3,0-0.5,0.1-0.7,0.2c-0.2,0.1-0.3,0.3-0.3,0.6H137.5z M140.9,33.8
			c-0.1,0.1-0.1,0.1-0.2,0.1c-0.1,0-0.2,0.1-0.3,0.1c-0.1,0-0.2,0-0.3,0c-0.1,0-0.2,0-0.4,0c-0.1,0-0.2,0-0.3,0.1s-0.2,0.1-0.3,0.1
			c-0.1,0.1-0.1,0.1-0.2,0.2s-0.1,0.2-0.1,0.3c0,0.1,0,0.2,0.1,0.3s0.1,0.1,0.2,0.2c0.1,0,0.2,0.1,0.3,0.1c0.1,0,0.2,0,0.3,0
			c0.3,0,0.5,0,0.7-0.1c0.2-0.1,0.3-0.2,0.4-0.3c0.1-0.1,0.1-0.2,0.1-0.4c0-0.1,0-0.2,0-0.3V33.8z"/>
		<path id="XMLID_2551_" class="st0" d="M144.9,31.4V32h0c0.2-0.3,0.4-0.5,0.7-0.6c0.3-0.1,0.6-0.2,0.9-0.2c0.4,0,0.7,0,1,0.1
			c0.3,0.1,0.5,0.2,0.6,0.4c0.1,0.2,0.2,0.4,0.3,0.6c0.1,0.2,0.1,0.5,0.1,0.8v3H147v-2.7c0-0.4-0.1-0.7-0.2-0.9
			c-0.1-0.2-0.4-0.3-0.7-0.3c-0.4,0-0.7,0.1-0.9,0.3c-0.2,0.2-0.3,0.6-0.3,1.1v2.6h-1.5v-4.9H144.9z"/>
	</g>
	<g id="XMLID_281_">
		<path id="XMLID_2548_" class="st0" d="M154.1,29.5v2.6h3v-2.6h1.6v6.7h-1.6v-2.9h-3v2.9h-1.6v-6.7H154.1z"/>
		<path id="XMLID_2546_" class="st0" d="M161.3,35c0.1,0.1,0.2,0.2,0.3,0.3c0.1,0.1,0.2,0.1,0.4,0.1s0.3,0,0.4,0c0.1,0,0.2,0,0.3,0
			c0.1,0,0.2-0.1,0.3-0.1c0.1,0,0.2-0.1,0.2-0.2c0.1-0.1,0.1-0.2,0.1-0.3c0-0.2-0.1-0.4-0.4-0.5c-0.3-0.1-0.7-0.2-1.2-0.3
			c-0.2,0-0.4-0.1-0.6-0.2s-0.4-0.1-0.5-0.2c-0.2-0.1-0.3-0.2-0.4-0.4c-0.1-0.1-0.1-0.3-0.1-0.5c0-0.3,0.1-0.6,0.2-0.8
			c0.1-0.2,0.3-0.4,0.5-0.5c0.2-0.1,0.5-0.2,0.7-0.2c0.3,0,0.6-0.1,0.8-0.1s0.6,0,0.8,0.1c0.3,0.1,0.5,0.1,0.7,0.3
			c0.2,0.1,0.4,0.3,0.5,0.5c0.1,0.2,0.2,0.4,0.3,0.7h-1.4c0-0.3-0.1-0.4-0.3-0.5c-0.2-0.1-0.4-0.1-0.7-0.1c-0.1,0-0.2,0-0.3,0
			c-0.1,0-0.2,0-0.3,0.1c-0.1,0-0.1,0.1-0.2,0.1s-0.1,0.1-0.1,0.2c0,0.1,0,0.2,0.1,0.3c0.1,0.1,0.2,0.1,0.4,0.2
			c0.2,0,0.3,0.1,0.5,0.1c0.2,0,0.4,0.1,0.6,0.1c0.2,0,0.4,0.1,0.6,0.2c0.2,0.1,0.4,0.1,0.5,0.2c0.2,0.1,0.3,0.2,0.4,0.4
			c0.1,0.2,0.1,0.3,0.1,0.6c0,0.3-0.1,0.6-0.2,0.8c-0.1,0.2-0.3,0.4-0.6,0.5c-0.2,0.1-0.5,0.2-0.8,0.3c-0.3,0.1-0.6,0.1-0.9,0.1
			c-0.3,0-0.6,0-0.9-0.1c-0.3-0.1-0.6-0.2-0.8-0.3s-0.4-0.3-0.6-0.5c-0.1-0.2-0.2-0.5-0.2-0.8h1.4C161.2,34.8,161.2,34.9,161.3,35z"
			/>
		<path id="XMLID_335_" class="st0" d="M165.6,30.6v-1.1h1.5v1.1H165.6z M167.1,31.4v4.9h-1.5v-4.9H167.1z"/>
		<path id="XMLID_291_" class="st0" d="M169.7,31.4V32h0c0.2-0.3,0.4-0.5,0.7-0.6c0.3-0.1,0.6-0.2,0.9-0.2c0.4,0,0.7,0,1,0.1
			c0.3,0.1,0.5,0.2,0.6,0.4c0.1,0.2,0.2,0.4,0.3,0.6c0.1,0.2,0.1,0.5,0.1,0.8v3h-1.5v-2.7c0-0.4-0.1-0.7-0.2-0.9
			c-0.1-0.2-0.4-0.3-0.7-0.3c-0.4,0-0.7,0.1-0.9,0.3c-0.2,0.2-0.3,0.6-0.3,1.1v2.6h-1.5v-4.9H169.7z"/>
		<path id="XMLID_288_" class="st0" d="M177.5,29.5V35h3.6v1.2h-5.2v-6.7H177.5z"/>
		<path id="XMLID_285_" class="st0" d="M181.9,30.6v-1.1h1.5v1.1H181.9z M183.3,31.4v4.9h-1.5v-4.9H183.3z"/>
		<path id="XMLID_283_" class="st0" d="M185.9,31.4V32h0c0.2-0.3,0.4-0.5,0.7-0.6c0.3-0.1,0.6-0.2,0.9-0.2c0.4,0,0.7,0,1,0.1
			c0.3,0.1,0.5,0.2,0.6,0.4c0.1,0.2,0.2,0.4,0.3,0.6c0.1,0.2,0.1,0.5,0.1,0.8v3H188v-2.7c0-0.4-0.1-0.7-0.2-0.9
			c-0.1-0.2-0.4-0.3-0.7-0.3c-0.4,0-0.7,0.1-0.9,0.3c-0.2,0.2-0.3,0.6-0.3,1.1v2.6h-1.5v-4.9H185.9z"/>
	</g>
</g>
</svg>
