<?xml version="1.0" encoding="utf-8"?>
<!-- Generator: Adobe Illustrator 19.0.0, SVG Export Plug-In . SVG Version: 6.00 Build 0)  -->
<svg version="1.1" id="圖層_1" xmlns="http://www.w3.org/2000/svg" xmlns:xlink="http://www.w3.org/1999/xlink" x="0px" y="0px"
	 viewBox="-53 382.9 488 76" style="enable-background:new -53 382.9 488 76;" xml:space="preserve">
<style type="text/css">
	.st0{fill:#C91620;}
	.st1{fill:#FFFFFF;}
</style>
<g id="Banner_底圖">
</g>
<g id="_x31_949_x7E_1988">
</g>
<g id="_x31_991">
</g>
<g id="_x32_012_x7E_2016">
</g>
<g id="圖層_1_1_">
</g>
<g id="圖層_3">
</g>
<g id="圖層_7">
</g>
<g id="banner_x5F_grid">
</g>
<g id="XMLID_2184_">
	<g id="XMLID_2586_">
		<path class="st0" d="M-44.8,438.4c-2.6,0-4.6-2.5-4.6-5.5c0-3.4,2.9-11.5,5.7-17.6c2.5-5.5,5.7-11.7,8.7-17
			c-1.8,0.5-3.7,1.1-5.1,1.6c-0.9,0.4-1.8,0.5-2.2,0.5c-2,0-3.6-1.8-3.6-4c0-3.4,2.6-4.8,6.9-6.1c4.7-1.5,8-2.2,13.2-3
			c4.1-0.5,7.7-0.8,10.5-0.8c5.1,0,6.2,2.5,6.2,4.6c0,1.6-0.7,4.3-5.3,4.5c-2,0.1-4.5,0.3-7.3,0.5c-1.5,0.1-2.4,0.2-3.4,0.3
			c0,0.1,0,0.2,0,0.3c0,1-0.2,1.6-0.9,2.8l-0.1,0.1l-0.1,0.1c0,0.1-0.3,0.5-0.5,0.8c-0.2,0.3-0.4,0.7-0.6,1.1l-3.1,5.9
			c-2.1,4-4.2,8.5-5.8,12.5c-1.6,4.1-3.6,9.7-4.2,12.1l-0.6,2.6C-41.5,437.1-42.8,438.4-44.8,438.4z"/>
		<path class="st1" d="M-15.2,387.7c3.2,0,4.8,1,4.8,3.2c0,2-1.3,3-3.9,3.1c-2,0.1-4.7,0.3-7.3,0.5c-2.3,0.1-3.4,0.3-5.2,0.6
			c0.4,0.5,0.5,0.8,0.5,1.4c0,0.7-0.1,1.1-0.7,2c-0.2,0.2-0.6,1-1.2,2.2l-3.1,5.9c-2,3.9-4.2,8.5-5.9,12.6
			c-1.6,4.1-3.6,9.7-4.3,12.3l-0.6,2.6c-0.5,2-1.3,2.9-2.6,2.9c-1.8,0-3.2-1.9-3.2-4.1c0-2.7,2.4-9.9,5.5-17.1
			c2.7-5.9,6.6-13.5,10.2-19.7c-2.4,0.5-6,1.5-8.5,2.4c-0.6,0.3-1.3,0.4-1.7,0.4c-1.1,0-2.2-1.2-2.2-2.6c0-2.2,1.5-3.5,5.9-4.8
			c4.8-1.5,8.1-2.2,13-3C-21.7,388-18,387.7-15.2,387.7 M-15.2,384.9c-2.9,0-6.6,0.3-10.7,0.8c-5.3,0.8-8.7,1.6-13.5,3.1
			c-2.8,0.8-7.9,2.4-7.9,7.4c0,3,2.2,5.4,5,5.4c0.5,0,1.6-0.1,2.7-0.6c0.5-0.2,1.1-0.4,1.7-0.6c-2.5,4.6-5,9.6-7,14.1
			c-2.9,6.5-5.8,14.6-5.8,18.2c0,3.8,2.7,6.9,6,6.9c1.5,0,4.2-0.6,5.3-5l0.6-2.6c0.7-2.4,2.5-7.9,4.2-12c1.6-3.9,3.7-8.4,5.7-12.3
			l3.1-5.9c0.2-0.4,0.4-0.8,0.6-1.1c0.1-0.2,0.3-0.5,0.4-0.7l0.1-0.1l0.1-0.2c0.5-0.9,0.9-1.6,1-2.5c0.6-0.1,1.3-0.1,2.1-0.2l0,0
			l0,0c2.8-0.2,5.3-0.4,7.2-0.5l0,0l0,0c6.1-0.3,6.6-4.6,6.6-5.9C-7.7,389.1-8.4,384.9-15.2,384.9L-15.2,384.9z"/>
	</g>
	<g id="XMLID_2582_">
		<path class="st0" d="M-34.2,436.5c-2.1,0-3.7-1.7-3.7-3.9c0-3.1,2.8-10.6,5.2-15.5c1.2-2.5,2.7-4.9,3.8-6.1c0.7-0.9,1.9-2,3.7-2
			c2,0,3.5,1.6,3.6,3.5c0.1-0.1,0.2-0.2,0.4-0.3c2.5-2.1,3.8-2.9,5.2-2.9c1.4,0,2.7,1.1,3.2,2.5c2.5-4.2,4.4-5.9,6.4-5.9
			c2,0,3.5,1.6,3.5,3.7c0,1.5-0.5,2.5-1.8,4.5c-2.9,4.4-3.8,7-4.1,8.6c0.1-0.1,0.2-0.2,0.3-0.4c1.3-1.7,3.1-4.5,4.5-7.1l2.2-3.9
			c1.1-2,2.4-3,4-3c2.1,0,3.6,1.6,3.6,3.9c0,1.7-0.5,2.8-2.6,6.3c-1.6,2.8-2.4,4.6-2.6,5.7c0.4-0.4,1.1-1.2,2.1-2.6l1.2-1.8
			c0-0.1,0.1-0.1,0.1-0.2l0.5-0.7c0.7-1.1,1.7-2.1,3.2-2.1c0.3,0,0.6,0.1,0.9,0.2c-0.3-0.9-0.4-1.9-0.4-3c0-3.8,1.7-6.7,5.2-9.2
			c2.7-1.9,5.4-2.8,8.1-2.8c3,0,5.3,1.3,6.5,3.5c0.4-0.1,0.9-0.2,1.4-0.3c0.7-0.1,1.2-0.2,1.7-0.3l0-0.1c2.5-4.1,4.7-7.2,6.9-10
			c1.1-1.3,2.3-2.6,4.1-2.6c2.1,0,3.7,1.6,3.7,3.6c0,1.5-0.6,2.5-2.7,5.4c0.4-0.1,0.8-0.1,1.2-0.1c2.1,0,3.7,1.8,3.7,4.1
			c0,0.7-0.2,1.5-0.5,2.1c1-0.4,2.1-0.7,3.1-0.7c3.3,0,5.5,2.6,5.5,6.3c0,0.4,0,0.8-0.1,1.2c0.6-1,1.3-1.9,2-2.8
			c2.5-3.3,6.2-5.5,9.3-5.5c0.9,0,1.6,0.1,2.4,0.4c1.2-2.7,1.8-4.1,3.3-7.3l0.2-0.5c2.2-4.7,3.8-7,6.4-7c2,0,3.6,1.7,3.6,3.9
			c0,1.3-0.4,2.3-1.3,3.7c-1.7,3-3,5.6-5.4,10.8c-1.9,4-3.6,8.3-4.8,11.7c-0.4,1.2-0.6,2.1-0.7,2.7c0.1-0.1,0.2-0.2,0.2-0.3
			c0.6-0.7,1.9-2.7,2.7-4c1.1-1.8,2.1-3.2,3.9-3.2c1.6,0,2.9,1.4,2.9,3.2c0,2-2.2,6-4.2,9c-3.1,4.4-5.6,6.3-8.3,6.3
			c-1.9,0-3.4-0.9-4.2-2.6c-1.8,2.2-3.9,3.4-6.1,3.4c-2.6,0-4.7-1.7-5.6-4.4c-2.8,2.3-5.8,3.6-8.5,3.6c-3.1,0-5.6-1.8-6.8-4.6
			c-2.8,2.8-5.4,4.2-8,4.2c-3.7,0-6.4-3.1-6.4-7.3c0-2.9,0.7-6.1,2.4-10.1c-1.3,1.2-2.9,1.9-4.5,1.9c-0.4,0-0.9-0.1-1.3-0.2
			c1.5,2.4,2.2,4.2,2.2,6.3c0,5-4.1,9-9.2,9c-3.1,0-5.8-1.4-7.5-3.9c-2.5,2.6-4.9,3.9-7.1,3.9c-2.1,0-3.8-1.3-4.5-3.3
			c-1.5,1.5-3.1,2.3-4.9,2.3c-3.3,0-5.7-3-5.7-7v0c-0.8,0.3-1.6,0.4-2.4,0.4c-2.2,0-4-1.3-4.5-3.2c-1.8,2-3.4,4.3-4.3,6.5l-1.4,3.3
			C-31,435-32,436.5-34.2,436.5z M65.7,415c-0.5,0.3-1.2,1.1-2.3,2.6c-2.1,3.1-3.5,6.8-3.5,9.2c0.3-0.3,0.7-0.8,1.2-1.7
			c0.7-1.3,1.8-3.8,3.3-7.2L65.7,415z M43.8,425.8c0,0.7,0.3,1,1.1,1c0.9,0,2.3-0.7,3.8-1.9c-1.3,0.6-2.6,1-4,1
			C44.3,425.9,44,425.9,43.8,425.8z M10.1,423.6c0.1,0.2,0.1,0.4,0.2,0.7c0.1,0.5,0.6,1.7,1.6,1.7c0.6,0,1-0.3,1-0.8
			c0-0.5,0-0.6-2-3.5c-0.2-0.3-0.4-0.5-0.6-0.8c0,0.2-0.1,0.3-0.1,0.5L10.1,423.6L10.1,423.6z M36.1,412.2c-2,3.4-2.8,5-4.1,8.5
			c-0.9,2.4-1.2,3.7-1.2,4.6c0,0.2,0,0.4,0.1,0.5c0.8-0.3,3.1-2.3,5.8-6.4c0.5-0.7,0.9-1.2,1.4-1.6c1.3-2.8,3.2-5.6,5.5-7.7
			c-0.2,0-0.5,0.1-0.8,0.1c-0.9,0.1-3.2,0.7-5.4,1.3c-0.5,0.1-0.8,0.2-1,0.3L36.1,412.2z M20.2,410.7c-2,0-4.1,2-4.1,3.4
			c0,0.4,0.1,0.8,0.3,1.3c0.1-1.3,0.7-2.3,1.8-3.1l1.3-0.8C19.9,411.3,20.1,410.9,20.2,410.7C20.2,410.7,20.2,410.7,20.2,410.7z"/>
		<path class="st1" d="M79.3,393.1c1.1,0,2.2,1.1,2.2,2.5c0,0.9-0.3,1.6-1.1,3c-1.8,3.2-3.1,5.9-5.5,10.9c-2,4.3-3.8,8.6-4.8,11.8
			c-0.6,1.7-0.8,2.9-0.8,3.7c0,0.8,0.4,1.4,0.9,1.4c0.5,0,1.2-0.5,1.8-1.2c0.6-0.8,2-2.8,2.9-4.2c1.2-2,1.8-2.5,2.7-2.5
			c0.8,0,1.5,0.8,1.5,1.8c0,1.4-1.7,4.9-3.9,8.2c-2.7,3.9-5,5.7-7.1,5.7c-2.2,0-3.6-1.7-3.7-4.7c-1.7,3.4-4.2,5.5-6.7,5.5
			c-2.7,0-4.5-2.3-4.7-5.8c-3,3.1-6.5,5-9.4,5c-3.3,0-5.7-2.4-6.2-6c0,0,0,0.1,0,0.1c-3.1,3.7-5.9,5.6-8.7,5.6c-2.9,0-5-2.5-5-5.9
			c0-4,1.5-8.4,5-15.1c-0.5,0.1-0.8,0.1-1.1,0.1c-0.3,0-0.6-0.1-0.8-0.1c-1.3,3-4.1,5.6-6.5,5.6c-1.3,0-2.4-1.1-2.4-2.5
			c0-0.9,0.4-1.7,1.2-2.2l1.2-0.7c0.8-0.5,1.5-1.4,1.5-2.2s-0.6-1.3-1.5-1.3c-2.7,0-5.5,2.5-5.5,4.8c0,1.4,0.5,2.5,2.4,5.1
			c1.8,2.6,2.6,4.5,2.6,6.5c0,4.1-3.5,7.6-7.8,7.6c-3.3,0-6-1.9-7.2-4.9c-2.6,3.2-5.2,4.9-7.4,4.9c-2.1,0-3.6-1.9-3.6-4.4
			c0-0.4,0.1-0.7,0.2-1.3c-1.9,3.3-3.8,4.7-6,4.7c-2.4,0-4.3-2.3-4.3-5.6c0-0.7,0.1-1.5,0.2-2.2c-1.4,0.8-2.7,1.2-3.9,1.2
			c-1.8,0-3.2-1.2-3.2-3c0-0.9,0.3-1.7,0.9-2.8c-3.2,2.5-6.2,6.3-7.8,9.8l-1.4,3.3c-0.7,1.5-1.4,2.1-2.5,2.1c-1.3,0-2.3-1-2.3-2.5
			c0-2.5,2.4-9.6,5.1-14.8c1.1-2.3,2.6-4.7,3.6-5.9c0.9-1.1,1.7-1.5,2.6-1.5c1.2,0,2.2,1,2.2,2.2c0,0.9-0.2,1.4-1.7,3.3
			c-1.1,1.5-2.3,3.5-2.8,4.9l0.4-0.6c2.3-3,4.1-4.8,6.7-6.9c2.4-2,3.4-2.6,4.3-2.6c1,0,2,1.2,2,2.3c0,1.2-0.5,2-2,3.1
			c-1.5,1.2-2.4,2.4-2.4,3c0,0.3,0.3,0.6,0.6,0.6c0.6,0,1.8-0.9,3.2-2.2c0.3-0.3,0.5-0.5,0.7-0.7c0.6-1.3,1.2-2.6,2-3.9
			c2.2-3.8,4-5.6,5.5-5.6c1.2,0,2.1,1,2.1,2.3c0,1.1-0.3,1.7-1.6,3.8c-2.8,4.3-4.4,7.9-4.4,10.3c0,0.8,0.3,1.2,0.8,1.2
			c0.6,0,1.3-0.6,2.2-1.7c1.4-1.8,3.2-4.6,4.6-7.2l2.2-3.8c0.8-1.5,1.7-2.2,2.7-2.2c1.3,0,2.2,1,2.2,2.5c0,1.2-0.3,2-2.4,5.6
			c-2,3.6-2.9,5.6-2.9,7c0,0.7,0.4,1.3,0.9,1.3c0.8,0,2.1-1.2,3.8-3.6l1.3-1.8c0-0.1,0.1-0.1,0.1-0.2l0.4-0.7c0.8-1.1,1.3-1.5,2-1.5
			c0.8,0,1.5,0.8,1.5,1.8c0,0.3-0.1,0.6-0.1,1l-0.1,2.5c0,0.1,0.1,0.4,0.3,0.9c0.4,1.7,1.6,2.8,3,2.8c1.3,0,2.4-0.9,2.4-2.2
			c0-0.9-0.2-1.3-2.3-4.3c-2-2.8-2.6-4.3-2.6-6.7c0-3.3,1.5-5.9,4.6-8.1c2.4-1.7,4.8-2.5,7.3-2.5c2.9,0,5,1.4,5.7,3.8
			c0.6-0.2,1.4-0.5,2.5-0.6c1-0.1,1.7-0.3,2.4-0.5l0.3-0.6c2.3-3.7,4.5-6.9,6.7-9.8c1.1-1.4,2-2,3-2c1.3,0,2.3,1,2.3,2.2
			c0,1.1-0.4,1.7-3,5.3c-0.8,1-1.1,1.7-1.7,2.5c0.4-0.1,0.6-0.2,0.6-0.2l2-0.6c0.8-0.2,1.5-0.4,1.9-0.4c1.3,0,2.3,1.2,2.3,2.7
			c0,0.9-0.4,1.9-1.1,2.5c-0.5,0.4-1.1,0.7-2.6,0.9c-1,0.1-3.4,0.7-5.6,1.4c-0.8,0.2-1,0.3-1.6,0.5l-0.5,0.9
			c-2.1,3.5-2.9,5.2-4.2,8.7c-1,2.5-1.3,3.9-1.3,5.1c0,1.2,0.5,1.9,1.3,1.9c1.5,0,4.4-2.9,7.1-7.1c0.5-0.8,0.9-1.2,1.3-1.3
			c2.5-5.7,7.2-10.4,11.2-10.4c2.5,0,4.1,2,4.1,4.9c0,5.6-5,11.3-9.9,11.3c-0.6,0-1-0.1-1.8-0.4c-0.3,0.7-0.4,1-0.4,1.6
			c0,1.6,1,2.5,2.5,2.5c2.3,0,5.8-2.6,8.1-6.1l1.3-2c0.2-0.2,0.3-0.4,0.5-0.6c1-2.4,2.4-4.9,4.1-7c2.3-3,5.5-5,8.2-5
			c1.2,0,2.1,0.3,3.1,0.9c1.7-3.8,2.2-5,4.1-9.1C76.5,394.7,77.7,393.1,79.3,393.1 M59.5,428.5c0.8,0,1.8-0.9,2.8-2.8
			c0.7-1.3,1.8-3.6,3.4-7.3l2.1-4.8c-0.4-0.3-0.7-0.4-1.1-0.4c-1.5,0-2.7,0.9-4.4,3.5c-2.2,3.3-3.8,7.4-3.8,10
			C58.5,427.9,58.8,428.5,59.5,428.5 M45.6,419.1c1.9,0,4.1-2.2,4.1-4.1c0-0.5-0.3-0.9-0.6-0.9c-1,0-3,2.2-4.3,4.8
			C45,419.1,45.2,419.1,45.6,419.1 M79.3,390.3c-3.6,0-5.5,3.4-7.6,7.8l-0.2,0.5c-1.3,2.8-2,4.2-2.9,6.2c-0.5-0.1-1-0.1-1.6-0.1
			c-3.5,0-7.4,2.2-10.2,5.8c-0.9-3-3.4-5-6.5-5c-0.4,0-0.8,0-1.2,0.1c0,0,0-0.1,0-0.1c0-2.5-1.5-4.6-3.6-5.2
			c1.1-1.6,1.5-2.7,1.5-4.1c0-2.8-2.2-5-5.1-5c-2.4,0-4,1.6-5.2,3.1c-2.2,2.7-4.3,5.8-6.7,9.7c-0.3,0.1-0.6,0.1-0.9,0.2l-0.1,0
			l-0.1,0c-0.2,0-0.3,0.1-0.5,0.1c-1.5-2.1-4.1-3.3-7.2-3.3c-3,0-5.9,1-8.8,3c-3,2.1-4.9,4.6-5.5,7.6C6.6,408.8,4.6,407,2,407
			c-1.4,0-2.6,0.6-3.7,1.6c-0.4-2.4-2.4-4.2-4.8-4.2c-2.6,0-4.7,2.2-6.4,4.8c-0.9-0.8-2-1.4-3.2-1.4c-1.6,0-3,0.8-4.8,2.2
			c-0.9-1.5-2.5-2.5-4.3-2.5c-2.4,0-3.8,1.4-4.7,2.5c-1.2,1.3-2.7,3.8-4,6.4c-2.6,5-5.4,12.7-5.4,16.1c0,3,2.2,5.3,5.1,5.3
			c3.4,0,4.7-2.8,5.1-3.7l0,0l0,0l1.4-3.3c0.6-1.5,1.6-3.1,2.8-4.5c1.1,1.3,2.8,2.1,4.8,2.1c0.4,0,0.7,0,1.1-0.1
			c0.6,3.9,3.4,6.7,6.9,6.7c1.8,0,3.3-0.6,4.5-1.5c1.2,1.6,2.9,2.5,4.9,2.5c2.2,0,4.6-1.1,7-3.2c1.9,2,4.6,3.2,7.6,3.2
			c4,0,7.5-2.2,9.3-5.5c1,3.5,3.9,5.9,7.4,5.9c2.6,0,5.1-1.1,7.7-3.4c1.6,2.3,4.2,3.7,7.2,3.7c2.5,0,5.3-1,8-2.9
			c1.3,2.3,3.5,3.7,6.1,3.7c2.1,0,4.2-0.9,6-2.6c1.1,1.2,2.6,1.8,4.4,1.8c4.1,0,7.2-3.7,9.4-6.9c0.5-0.7,4.4-6.6,4.4-9.8
			c0-2.5-1.9-4.6-4.3-4.6c-1.1,0-1.9,0.4-2.6,0.9c0.8-1.9,1.7-3.9,2.6-5.8c2.4-5.2,3.7-7.7,5.4-10.7c0.9-1.6,1.4-2.8,1.4-4.4
			C84.3,392.6,82.1,390.3,79.3,390.3L79.3,390.3z M37.3,413c0.1,0,0.3-0.1,0.5-0.1c0.6-0.2,1.3-0.4,1.9-0.5c-1.1,1.5-2,3-2.8,4.6
			c-0.6,0.5-1.1,1.1-1.4,1.7c-0.9,1.3-1.7,2.4-2.4,3.3c0.1-0.2,0.1-0.4,0.2-0.6C34.5,417.8,35.3,416.2,37.3,413L37.3,413z
			 M6.1,415.8c0.2-0.5,0.4-0.9,0.5-1.3c0,0.4,0,0.8,0.1,1.1C6.5,415.7,6.3,415.8,6.1,415.8L6.1,415.8z M21.3,420.9
			c0.2,0,0.4-0.1,0.7-0.2c-0.1,0.3-0.2,0.7-0.3,1C21.6,421.4,21.5,421.2,21.3,420.9L21.3,420.9z"/>
	</g>
	<g id="XMLID_2579_">
		<path class="st0" d="M106,435.2c-2.4,0-4.4-1.5-5.4-4c-2.7,2.6-5.2,3.9-7.7,3.9c-3.7,0-6.4-3.1-6.4-7.3c0-3.8,1.2-7.9,4.1-13.8
			c-1.7-0.5-2.8-1.9-2.8-3.8c0-3.4,2.8-4.2,5.7-4.8c0.7-0.1,1.2-0.2,1.7-0.3l0-0.1c2.5-4.1,4.7-7.2,6.9-10c1.1-1.3,2.3-2.6,4.1-2.6
			c2.1,0,3.7,1.6,3.7,3.6c0,1.5-0.6,2.5-2.7,5.4c0.4-0.1,0.8-0.1,1.2-0.1c2.1,0,3.7,1.8,3.7,4.1c0,0.2,0,0.4,0,0.6
			c1.1-0.6,2.2-0.8,3.3-0.8c3.3,0,5.5,2.9,5.5,7.3c0,2.9-0.6,5.2-2.1,7.6c0,0.1,0,0.2,0,0.3c0,2.2-1.1,5.3-3,8.1
			C112.8,432.9,109.4,435.2,106,435.2z M100.3,412.2c-2,3.4-2.8,5-4.1,8.5c-0.9,2.4-1.2,3.7-1.2,4.6c0,0.2,0,0.4,0.1,0.5
			c0.8-0.3,3.1-2.3,5.8-6.4c0.4-0.6,0.8-1.1,1.2-1.4c0.8-1.8,1.7-3.4,2.7-5c0.7-1,1.3-1.9,2.1-2.7c-1,0.2-3.2,0.7-5.2,1.3
			c-0.5,0.1-0.8,0.2-1,0.3L100.3,412.2z M112.5,415.6c-0.4,0.4-0.8,1-1.3,1.9c-1.9,3-3.3,6.3-3.3,8c0,0,0,0,0,0
			c0.4-0.3,1.1-1.1,2.1-3.1c-0.3-0.5-0.4-0.9-0.4-1.5c0-1,0.4-1.6,1.1-2.3C111.4,417.9,112.1,416.7,112.5,415.6z"/>
		<path class="st1" d="M106.2,393.9c1.3,0,2.3,1,2.3,2.2c0,1.1-0.4,1.7-3,5.3c-0.8,1-1.1,1.7-1.7,2.5c0.4-0.1,0.6-0.2,0.6-0.2l2-0.6
			c0.8-0.2,1.5-0.4,1.9-0.4c1.3,0,2.3,1.2,2.3,2.7c0,0.9-0.4,1.9-1.1,2.5c-0.5,0.4-1.1,0.7-2.6,0.9c-1,0.1-3.4,0.7-5.6,1.4
			c-0.8,0.2-1,0.3-1.6,0.5l-0.5,0.9c-2.1,3.5-2.9,5.2-4.2,8.7c-1,2.5-1.3,3.9-1.3,5.1c0,1.2,0.5,1.9,1.3,1.9c1.5,0,4.4-2.9,7.1-7.1
			c0.4-0.7,0.8-1,1.2-1.3c0.7-1.8,1.7-3.5,2.7-5.1c2.9-4.3,6.5-7.1,9.3-7.1c2.5,0,4.1,2.3,4.1,5.9c0,2.8-0.6,5-2.2,7.3
			c0.1,0.3,0.1,0.5,0.1,0.7c0,2-1,4.7-2.7,7.3c-2.5,3.8-5.5,6-8.4,6c-2.5,0-4.4-2.2-4.7-5.5c-3,3.5-5.8,5.4-8.5,5.4
			c-2.9,0-5-2.5-5-5.9c0-4,1.5-8.4,5-15.1c-0.5,0.1-0.8,0.1-1.1,0.1c-1.5,0-2.5-1-2.5-2.5c0-2,1.1-2.8,4.6-3.4
			c1-0.1,1.7-0.3,2.4-0.5l0.3-0.6c2.3-3.7,4.5-6.9,6.7-9.8C104.3,394.4,105.2,393.9,106.2,393.9 M107.6,427.1c1.2,0,2.6-1.6,4.1-4.8
			c-0.5-0.7-0.6-0.9-0.6-1.4c0-0.4,0.1-0.7,0.7-1.3c1.4-1.5,2.6-4.3,2.6-5.8c0-0.5-0.3-0.9-0.6-0.9c-0.8,0-2.2,1.4-3.7,3.8
			c-2,3.2-3.5,6.7-3.5,8.8C106.5,426.4,106.9,427.1,107.6,427.1 M106.2,391.1c-2.4,0-4,1.6-5.2,3.1c-2.2,2.7-4.3,5.8-6.7,9.7
			c-0.3,0.1-0.6,0.1-0.9,0.2l-0.1,0l-0.1,0c-2.2,0.4-6.9,1.3-6.9,6.1c0,1.9,0.9,3.5,2.3,4.5c-2.6,5.4-3.6,9.4-3.6,13.1
			c0,5,3.4,8.7,7.8,8.7c2.5,0,4.9-1,7.3-3c1.4,2,3.4,3.2,5.8,3.2c3.8,0,7.6-2.6,10.7-7.3c2-3.1,3.2-6.3,3.2-8.8c1.4-2.5,2.1-5,2.1-8
			c0-4.3-2.1-8.7-6.9-8.7c-0.7,0-1.3,0.1-2,0.3c-0.4-1.9-1.7-3.3-3.4-3.9c1.1-1.6,1.5-2.7,1.5-4.1
			C111.3,393.3,109,391.1,106.2,391.1L106.2,391.1z M101.5,413c0.1,0,0.3-0.1,0.5-0.1c0.5-0.1,1-0.3,1.4-0.4c-0.9,1.4-1.8,3-2.5,4.6
			c-0.4,0.4-0.8,0.9-1.2,1.5c-0.9,1.3-1.7,2.4-2.4,3.3c0.1-0.2,0.1-0.4,0.2-0.6C98.8,417.8,99.5,416.2,101.5,413L101.5,413z"/>
	</g>
	<g id="XMLID_2578_">
		<path class="st0" d="M196.5,405.3c-2.1,0-3.8-1.7-3.8-3.9c0-3.5,3.1-7.1,6.2-7.1c2.1,0,3.7,1.8,3.7,4.1
			C202.6,401.8,199.6,405.3,196.5,405.3z"/>
		<path class="st1" d="M198.9,395.6c1.3,0,2.3,1.2,2.3,2.8c0,2.7-2.4,5.5-4.7,5.5c-1.3,0-2.4-1.1-2.4-2.5
			C194.1,398.6,196.6,395.6,198.9,395.6 M198.9,392.8c-3.8,0-7.6,4.2-7.6,8.5c0,3,2.3,5.3,5.2,5.3c3.9,0,7.5-4,7.5-8.3
			C204,395.2,201.8,392.8,198.9,392.8L198.9,392.8z"/>
	</g>
	<g id="XMLID_2572_">
		<path class="st0" d="M225.6,436.5c-1.8,0-3.2-1.2-3.6-2.9c-2,1.2-4.1,1.8-6,1.8c-4.5,0-7.7-3.7-7.7-8.8c0-1.1,0.1-2.2,0.3-3.3
			c-0.2,0-0.3-0.1-0.5-0.1c-3.6,6.4-7.7,10.1-11.5,10.1c-1.7,0-3.2-0.9-4.3-2.4c-2.3,2-4.7,3.2-6.8,3.2c-1.9,0-3.5-0.9-4.5-2.4
			c-2.7,2.6-5.2,3.9-7.7,3.9c-2.8,0-4.9-1.5-6-4c-2.9,2.5-6.1,4-8.9,4c-2.8,0-5.1-1.5-6.5-3.9c-2.3,2.7-4.3,3.9-6.4,3.9
			c-1.9,0-3.4-0.9-4.2-2.6c-1.8,2.2-3.9,3.4-6.1,3.4c-3.6,0-6.2-3.3-6.2-8c0-5.4,2.3-11.6,6.3-16.6c2.5-3.3,6.2-5.5,9.3-5.5
			c0.9,0,1.6,0.1,2.4,0.4c1.2-2.7,1.8-4.1,3.3-7.3l0.2-0.5c2.2-4.7,3.8-7,6.4-7c2,0,3.6,1.7,3.6,3.9c0,1.3-0.4,2.3-1.3,3.7
			c-1.7,3-3,5.6-5.4,10.8c-1.9,4-3.6,8.3-4.8,11.7c-0.4,1.2-0.6,2.1-0.7,2.7c0.1-0.1,0.2-0.2,0.2-0.3c0.6-0.7,1.9-2.7,2.7-4
			c0.6-1,1.1-1.6,1.5-2.1c2.5-5.4,7.4-11.2,12.5-11.2c3.1,0,5.2,2.3,5.5,5.7c3.1-7,7.7-14.9,11.3-18.9c3-3.4,5.3-4.9,7.5-4.9
			c2.4,0,4,2,4,5.1c0,4.2-2.2,10.5-5.7,16.7c0.6-0.4,1.3-0.6,2.1-0.6c2,0,3.6,1.8,3.6,4.1c0,1.5-0.6,2.5-1.4,3.8
			c-2.4,3.4-3.5,5.6-3.7,6.7c0.2-0.1,0.4-0.3,0.7-0.6c0.8-0.7,1.9-1.9,2.4-2.6c0.4-0.5,0.7-0.9,1-1.3c0.3-0.8,0.6-1.6,0.9-2.4
			l2.2-5.1c0.5-1,0.9-2,1.2-3c0.1-0.4,0.3-0.7,0.4-1.1c0.6-1.7,1.5-3.6,3.9-3.6c2,0,3.6,1.7,3.6,4c0,0.2,0,0.3,0,0.5
			c1.1-2.3,2.7-3.9,4.6-3.9c2,0,3.3,1.9,3.3,4.7c0,1.3-0.2,2.8-0.6,4.2c0.6-0.6,1-0.9,1.3-1.2c3-4,6.4-6.3,9.6-6.3
			c3.3,0,5.5,2.6,5.5,6.3c0,0.6-0.1,1.3-0.2,1.9c1-1.7,2-3.2,2.7-4.1c0.7-0.9,1.9-2,3.7-2c2,0,3.5,1.6,3.6,3.5
			c0.1-0.1,0.2-0.2,0.4-0.3c2.5-2.1,3.8-2.9,5.2-2.9c1.8,0,3.4,1.8,3.4,3.7c0,0.7-0.1,1.3-0.4,1.8c0.1,0,0.3,0,0.5,0
			c1.6,0,3,1.5,3,3.3c0,2-1.4,4.2-3.8,6.2c-2.3,1.8-4.6,2.8-6.7,2.8c-2.2,0-4-1.3-4.5-3.2c-1.8,2-3.4,4.3-4.3,6.5l-1.4,3.3
			C228.8,435,227.8,436.5,225.6,436.5z M143.3,415c-0.5,0.3-1.2,1.1-2.3,2.6c-2.1,3.1-3.5,6.8-3.5,9.2c0.3-0.3,0.7-0.8,1.2-1.7
			c0.7-1.3,1.8-3.8,3.3-7.2L143.3,415z M216.3,425.8c0,0.7,0.3,1,1.1,1c0.9,0,2.3-0.7,3.8-1.9c-1.3,0.6-2.6,1-4,1
			C216.9,425.9,216.6,425.9,216.3,425.8z M158.8,425.8c0,0.7,0.3,1,1.1,1c0.9,0,2.3-0.7,3.8-1.9c-1.3,0.6-2.6,1-4,1
			C159.3,425.9,159,425.9,158.8,425.8z M175.1,425.6c0,0.4,0.3,0.6,0.4,0.6c0.1,0,1.5-0.1,5.5-5.8c0,0,1.1-1.5,1.2-1.6
			c0.1-0.1,0.1-0.3,0.2-0.4C180.3,420.9,177.9,423.2,175.1,425.6z M203.5,414c-0.1,0.3-0.3,0.7-0.4,1l-1.7,3.7
			c-0.7,1.4-1.2,2.8-1.4,3.8c0.4-0.4,0.8-1.1,1.5-2.1c1-1.6,1.7-2.6,2.1-3.6c-0.1-0.9-0.1-1.4-0.1-1.9
			C203.4,414.6,203.4,414.3,203.5,414z M183.2,404.8c-0.4,0.6-0.7,1.2-1,1.9c0.5-0.8,0.9-1.7,1.3-2.5
			C183.4,404.4,183.3,404.6,183.2,404.8z"/>
		<path class="st1" d="M189.6,390.2c1.6,0,2.6,1.4,2.6,3.7c0,4.5-2.8,11.8-7,18.3c-3.2,4.9-6.6,8.7-11.4,12.7
			c-0.1,0.2-0.1,0.5-0.1,0.7c0,1.1,0.8,2.1,1.8,2.1c1.5,0,3.7-2.1,6.7-6.4l1.1-1.4c0-0.1,0.1-0.1,0.1-0.2c0.6-1.2,1.2-2.5,2-3.9
			c1.8-3.1,3.1-4.3,4.5-4.3c1.3,0,2.2,1.2,2.2,2.7c0,1-0.3,1.7-1.2,3c-2.6,3.7-4,6.4-4,7.8c0,0.7,0.4,1.2,1,1.2
			c0.6,0,1.1-0.3,2.1-1.2c0.8-0.7,1.9-2,2.5-2.8c0.5-0.7,0.8-1.1,1.1-1.5c0.3-0.8,0.6-1.7,1-2.6l2.2-5.1c0.6-1.4,1.1-2.8,1.7-4.1
			c0.7-2,1.4-2.7,2.6-2.7c1.2,0,2.2,1.1,2.2,2.6c0,1.4-0.6,3.7-1.5,5.6l-1.7,3.7c-1,2.1-1.8,4.6-1.8,5.6c0,0.6,0.4,1.1,0.8,1.1
			c0.8,0,1.8-1.1,3.5-3.6c1.1-1.7,1.9-3,2.4-4.1c-0.1-1.1-0.1-1.6-0.1-2.1c0-4.1,2.2-8.2,4.5-8.2c1.1,0,1.9,1.4,1.9,3.3
			c0,2.1-0.6,4.7-1.5,6.5c0.3,0.1,0.5,0.1,0.6,0.1c0.8,0,1.5-0.4,2.4-1.2c0.8-0.8,1.3-1.2,1.6-1.4c2.5-3.4,5.7-5.8,8.6-5.8
			c2.5,0,4.1,2,4.1,4.9c0,5.6-5,11.3-9.9,11.3c-0.6,0-1-0.1-1.8-0.4c-0.3,0.7-0.4,1-0.4,1.6c0,1.6,1,2.5,2.5,2.5
			c2.3,0,5.8-2.6,8.1-6.1l1.3-2c0.3-0.4,0.6-0.7,0.9-0.9c0.2-0.5,0.5-1,0.7-1.4c1.1-2.3,2.6-4.7,3.6-5.9c0.9-1.1,1.7-1.5,2.6-1.5
			c1.2,0,2.2,1,2.2,2.2c0,0.9-0.2,1.4-1.7,3.3c-1.1,1.5-2.3,3.5-2.8,4.9l0.4-0.6c2.3-3,4.1-4.8,6.7-6.9c2.4-2,3.4-2.6,4.3-2.6
			c1,0,2,1.2,2,2.3c0,1.2-0.5,2-2,3.1c-1.5,1.2-2.4,2.4-2.4,3c0,0.3,0.3,0.6,0.6,0.6c0.6,0,1.8-0.9,3.2-2.2c1.1-1.1,1.5-1.3,2-1.3
			c0.9,0,1.6,0.9,1.6,1.9c0,1.5-1.2,3.4-3.3,5.1c-2,1.6-4,2.5-5.8,2.5c-1.8,0-3.2-1.2-3.2-3c0-0.9,0.3-1.7,0.9-2.8
			c-3.2,2.5-6.2,6.3-7.8,9.8l-1.4,3.3c-0.7,1.5-1.4,2.1-2.5,2.1c-1.3,0-2.3-1-2.3-2.5c0-0.4,0.1-1,0.2-1.7c-2.5,2-5.1,3.2-7.5,3.2
			c-3.7,0-6.3-3-6.3-7.4c0-1.5,0.2-3.1,0.7-4.7c-0.2,0-0.4,0-0.6,0c-0.8,0-1.3-0.1-2.3-0.5c-3.4,6.4-7.4,10.4-10.8,10.4
			c-1.8,0-3.3-1.4-3.8-3.4c-2.5,2.7-5.1,4.2-7.2,4.2c-2,0-3.6-1.4-4.1-3.5c-2.9,3.3-5.6,4.9-8.1,4.9c-2.8,0-4.8-2-5.2-5.3
			c-3.1,3.3-6.6,5.2-9.6,5.2c-3.1,0-5.3-2.1-6-5.3c-2.6,3.6-4.7,5.3-6.8,5.3c-2.2,0-3.6-1.7-3.7-4.7c-1.7,3.4-4.2,5.5-6.7,5.5
			c-2.9,0-4.8-2.7-4.8-6.6c0-5.1,2.2-11,6-15.8c2.3-3,5.5-5,8.2-5c1.2,0,2.1,0.3,3.1,0.9c1.7-3.8,2.2-5,4.1-9.1
			c2.2-4.6,3.5-6.2,5.1-6.2c1.1,0,2.2,1.1,2.2,2.5c0,0.9-0.3,1.6-1.1,3c-1.8,3.2-3.1,5.9-5.5,10.9c-2,4.3-3.8,8.6-4.8,11.8
			c-0.6,1.7-0.8,2.9-0.8,3.7c0,0.8,0.4,1.4,0.9,1.4c0.5,0,1.2-0.5,1.8-1.2c0.6-0.8,2-2.8,2.9-4.2c0.6-1,1.1-1.6,1.5-2
			c2.5-5.7,7.2-10.6,11.3-10.6c2.5,0,4.1,2,4.1,4.9c0,5.6-5,11.3-9.9,11.3c-0.6,0-1-0.1-1.8-0.4c-0.3,0.7-0.4,1-0.4,1.6
			c0,1.6,1,2.5,2.5,2.5c2.3,0,5.8-2.6,8.1-6.1l1.3-2c0.1-0.1,0.1-0.2,0.2-0.3c0.4-1.1,0.8-2.3,1.4-3.7c2.9-7.5,8.4-17.1,12.3-21.5
			C185.8,391.5,187.8,390.2,189.6,390.2 M175.7,417.8c2.7-2.9,4.6-5.3,6.6-8.6c2.7-4.3,5-9.5,5-11.1c0-0.4-0.2-0.7-0.4-0.7
			c-0.8,0-2.6,2.5-4.9,6.8c-1,1.7-1.6,3-3.1,6.3C177,414.3,176.4,415.7,175.7,417.8 M137.1,428.5c0.8,0,1.8-0.9,2.8-2.8
			c0.7-1.3,1.8-3.6,3.4-7.3l2.1-4.8c-0.4-0.3-0.7-0.4-1.1-0.4c-1.5,0-2.7,0.9-4.4,3.5c-2.2,3.3-3.8,7.4-3.8,10
			C136.1,427.9,136.5,428.5,137.1,428.5 M218.1,419.1c1.9,0,4.1-2.2,4.1-4.1c0-0.5-0.3-0.9-0.6-0.9c-1,0-3,2.2-4.3,4.8
			C217.6,419.1,217.8,419.1,218.1,419.1 M160.6,419.1c1.9,0,4.1-2.2,4.1-4.1c0-0.5-0.3-0.9-0.6-0.9c-1,0-3,2.2-4.3,4.8
			C160,419.1,160.2,419.1,160.6,419.1 M189.6,387.4c-2.7,0-5.3,1.7-8.6,5.4c-3.1,3.5-6.9,9.8-10,16c-1.2-2-3.3-3.2-5.7-3.2
			c-4.4,0-8.6,3.6-11.5,7.9c0.4-0.9,0.8-1.9,1.3-2.8c2.4-5.2,3.7-7.7,5.4-10.7c0.9-1.6,1.4-2.8,1.4-4.4c0-2.9-2.2-5.3-5-5.3
			c-3.6,0-5.5,3.4-7.6,7.8l-0.2,0.5c-1.3,2.8-2,4.2-2.9,6.2c-0.5-0.1-1-0.1-1.6-0.1c-3.6,0-7.6,2.3-10.4,6.1
			c-4.1,5.2-6.6,11.8-6.6,17.5c0,5.5,3.1,9.4,7.6,9.4c2.1,0,4.2-0.9,6-2.6c1.1,1.2,2.6,1.8,4.4,1.8c2.4,0,4.5-1.3,6.2-3
			c1.6,1.9,4,3,6.6,3c2.7,0,5.7-1.2,8.5-3.2c1.4,2.1,3.7,3.3,6.4,3.3c2.5,0,5-1.1,7.6-3.3c1.2,1.2,2.9,1.8,4.7,1.8
			c2.1,0,4.4-0.9,6.6-2.6c1.2,1.2,2.8,1.8,4.4,1.8c3.4,0,7-2.5,10.3-7c0.4,5.4,4.1,9.1,9,9.1c1.7,0,3.5-0.4,5.3-1.3
			c0.9,1.4,2.4,2.4,4.3,2.4c3.4,0,4.7-2.8,5.1-3.7l0,0l0,0l1.4-3.3c0.6-1.5,1.6-3.1,2.8-4.5c1.1,1.3,2.8,2.1,4.8,2.1
			c2.4,0,4.9-1,7.5-3.1c2.8-2.2,4.4-4.8,4.4-7.3c0-2.1-1.3-3.9-3.1-4.5c0-0.2,0-0.4,0-0.6c0-2.7-2.2-5.1-4.8-5.1
			c-1.6,0-3,0.8-4.8,2.2c-0.9-1.5-2.5-2.5-4.3-2.5c-2.4,0-3.8,1.4-4.7,2.5c-0.1,0.2-0.3,0.3-0.4,0.5c-0.9-3.1-3.4-5.2-6.6-5.2
			c-2.9,0-6.1,1.7-8.9,4.7c0,0,0-0.1,0-0.1c0-4.2-2.4-6.1-4.7-6.1c-1.5,0-2.9,0.7-4,1.9c-0.9-1.5-2.4-2.5-4.2-2.5
			c-3.6,0-4.8,3.2-5.2,4.5c-0.1,0.3-0.3,0.7-0.4,1c-0.3,0.9-0.7,1.8-1.1,2.6c-0.7-1.6-2.2-2.8-3.9-3c2.8-5.5,4.5-10.9,4.5-14.7
			C195,390,192.8,387.4,189.6,387.4L189.6,387.4z"/>
	</g>
	<g id="XMLID_2569_">
		<path class="st0" d="M298.7,435.2c-3.6,0-6.2-3.3-6.2-7.9c0-4.4,1.9-9.9,4.9-14.4c3.1-4.8,7.1-7.7,10.4-7.7c3.3,0,5.5,2.9,5.5,7.3
			c0,2.9-0.6,5.2-2.1,7.6c0,0.1,0,0.2,0,0.3c0,2.2-1.1,5.3-3,8.1C305.4,432.9,302,435.2,298.7,435.2z M305.1,415.6
			c-0.4,0.4-0.8,1-1.3,1.9c-1.9,3-3.3,6.3-3.3,8c0,0,0,0,0,0c0.4-0.3,1.1-1.1,2.1-3.1c-0.3-0.5-0.4-0.9-0.4-1.5c0-1,0.4-1.6,1.1-2.3
			C304,417.9,304.7,416.7,305.1,415.6z"/>
		<path class="st1" d="M307.8,406.6c2.5,0,4.1,2.3,4.1,5.9c0,2.8-0.6,5-2.2,7.3c0.1,0.3,0.1,0.5,0.1,0.7c0,2-1,4.7-2.7,7.3
			c-2.5,3.8-5.5,6-8.4,6c-2.8,0-4.8-2.7-4.8-6.5c0-4.1,1.8-9.3,4.6-13.6C301.4,409.4,305,406.6,307.8,406.6 M300.2,427.1
			c1.2,0,2.6-1.6,4.1-4.8c-0.5-0.7-0.6-0.9-0.6-1.4c0-0.4,0.1-0.7,0.7-1.3c1.4-1.5,2.6-4.3,2.6-5.8c0-0.5-0.3-0.9-0.6-0.9
			c-0.8,0-2.2,1.4-3.7,3.8c-2,3.2-3.5,6.7-3.5,8.8C299.1,426.4,299.5,427.1,300.2,427.1 M307.8,403.8c-3.8,0-8.2,3.1-11.6,8.4
			c-3.1,4.7-5.1,10.5-5.1,15.1c0,5.4,3.2,9.3,7.6,9.3c3.8,0,7.6-2.6,10.7-7.3c2-3.1,3.2-6.3,3.2-8.8c1.4-2.5,2.1-5,2.1-8
			C314.7,408.2,312.6,403.8,307.8,403.8L307.8,403.8z"/>
	</g>
	<g id="XMLID_2564_">
		<path class="st0" d="M253.2,456.9c-3.9,0-7.2-3.5-7.2-7.6c0-3,1.3-6,3.7-8.7c2.1-2.3,4.2-3.7,8.8-5.9c0.2-0.1,0.3-0.2,0.5-0.3
			c-2.8-0.3-4.9-3.1-4.9-6.7c0-4.5,2.3-10,6.1-14.7c4.2-5.1,7.9-7.6,11.6-7.6c3.2,0,5.7,2.7,5.7,6.2c0,1.1-0.3,2.6-0.7,4.1
			c0.2,0.4,0.4,0.9,0.4,1.5c0,0.7-0.3,1.4-0.9,2.6l-0.2,0.4c-0.7,1.2-1,1.8-1.4,2.6c0.8-1,1.6-2.1,2.4-3.2c0.3-0.4,0.5-0.7,0.7-1
			c0.8-2,1.8-3.9,3-5.6c3.1-4.8,7.1-7.7,10.4-7.7c3.3,0,5.5,2.9,5.5,7.3c0,2.9-0.6,5.2-2.1,7.6c0,0.1,0,0.2,0,0.3
			c0,2.2-1.1,5.3-3,8.1c-2.8,4.3-6.2,6.6-9.6,6.6c-2.4,0-4.4-1.5-5.4-4c-2,2-4.4,3.8-7.8,6c0,0.1-0.1,0.1-0.1,0.2l-2,5.3
			c-2,5.1-3.7,8.1-5.7,10.2C258.4,455.5,255.7,456.9,253.2,456.9z M257.1,444.4c-0.2,0.2-0.4,0.3-0.6,0.5c-1.1,1-1.7,2.1-1.9,2.8
			c0.3-0.2,0.8-0.7,1.5-1.8C256.4,445.4,256.7,444.9,257.1,444.4z M288.4,415.6c-0.4,0.4-0.8,1-1.3,1.9c-1.9,3-3.3,6.3-3.3,8
			c0,0,0,0,0,0c0.4-0.3,1.1-1.1,2.1-3.1c-0.3-0.5-0.4-0.9-0.4-1.5c0-1,0.4-1.6,1.1-2.3C287.3,417.9,287.9,416.7,288.4,415.6z
			 M269.1,415c-0.5,0.4-1.4,1.2-2.6,2.7c-2.1,2.7-3.6,5.8-3.9,7.3c0.9-0.7,2.3-2.3,3.6-4.3c-0.1-0.3-0.2-0.5-0.2-0.8
			c0-0.8,0.4-1.5,1.3-2.3C268.2,416.7,268.8,415.8,269.1,415z"/>
		<path class="st1" d="M291.1,406.6c2.5,0,4.1,2.3,4.1,5.9c0,2.8-0.6,5-2.2,7.3c0.1,0.3,0.1,0.5,0.1,0.7c0,2-1,4.7-2.7,7.3
			c-2.5,3.8-5.5,6-8.4,6c-2.5,0-4.4-2.2-4.7-5.4c-2.3,2.8-5,4.9-9.4,7.7l-0.3,0.1c-0.1,0.4-0.3,0.6-0.3,0.6l-2,5.4
			c-1.8,4.8-3.4,7.7-5.3,9.7c-2.2,2.2-4.5,3.5-6.7,3.5c-3.2,0-5.9-2.8-5.9-6.2c0-2.7,1.2-5.4,3.4-7.7c1.9-2,3.8-3.3,8.3-5.6
			c1-0.6,2.4-1.2,3.6-1.9l0.4-0.1l0.1-0.3c0.3-0.8,0.4-1.3,0.6-1.6c0.6-1.4,0.6-1.4,0.8-2.2c-1.4,1.9-3.5,3.2-5.1,3.2
			c-2.3,0-4-2.2-4-5.3c0-4.1,2.1-9.3,5.8-13.8c3.9-4.8,7.4-7.1,10.5-7.1c2.4,0,4.3,2,4.3,4.8c0,1.2-0.4,2.9-0.9,4.3
			c0.4,0.4,0.6,0.8,0.6,1.2c0,0.4-0.2,0.9-0.8,2c-1.5,2.7-1.4,2.5-2.9,5.9c-1.1,2.3-1.5,3.2-1.9,4.4c2.5-2,5.7-5.6,8-9.1
			c0.3-0.4,0.5-0.7,0.8-1c0.8-1.9,1.7-3.8,2.9-5.6C284.7,409.4,288.3,406.6,291.1,406.6 M283.5,427.1c1.2,0,2.6-1.6,4.1-4.8
			c-0.5-0.7-0.6-0.9-0.6-1.4c0-0.4,0.1-0.7,0.7-1.3c1.4-1.5,2.6-4.3,2.6-5.8c0-0.5-0.3-0.9-0.6-0.9c-0.8,0-2.2,1.4-3.7,3.8
			c-2,3.2-3.5,6.7-3.5,8.8C282.4,426.4,282.8,427.1,283.5,427.1 M262.1,426.7c1.2,0,3.9-2.9,5.7-6.1c-0.3-0.4-0.4-0.6-0.4-0.8
			c0-0.3,0.1-0.6,0.9-1.4c1.5-1.4,2.3-3,2.3-4.4c0-0.7-0.3-1-0.8-1c-1,0-2.5,1.4-4.5,3.8c-2.4,3.1-4.3,6.9-4.3,8.6
			C261.2,426.1,261.6,426.7,262.1,426.7 M254.1,449.3c0.9,0,1.9-0.9,3.1-2.6c0.9-1.3,1.5-2.4,2.9-5.5l0.3-0.7l-0.4,0.2
			c-2.6,1.6-3.4,2.1-4.5,3c-1.5,1.3-2.4,3-2.4,4.3C253.1,448.8,253.6,449.3,254.1,449.3 M291.1,403.8c-3.8,0-8.2,3.1-11.6,8.4
			c-0.3,0.4-0.6,0.9-0.8,1.3c0.1-0.6,0.2-1.3,0.2-1.9c0-4.2-3.1-7.6-7.1-7.6c-4.1,0-8.2,2.7-12.7,8.1c-4.1,5-6.4,10.7-6.4,15.6
			c0,2.9,1.2,5.4,3,6.8c-3.2,1.7-5.1,3.1-6.9,5.1l0,0l0,0c-2.7,3-4.1,6.3-4.1,9.6c0,5,3.9,9,8.6,9c2.9,0,5.8-1.4,8.7-4.3
			c2.1-2.2,3.9-5.4,6-10.7l1.9-5.1c2.6-1.7,4.6-3.2,6.4-4.7c1.4,2,3.4,3.1,5.8,3.1c3.8,0,7.6-2.6,10.7-7.3c2-3.1,3.2-6.3,3.2-8.8
			c1.4-2.5,2.1-5,2.1-8C297.9,408.2,295.8,403.8,291.1,403.8L291.1,403.8z"/>
	</g>
	<g id="XMLID_2561_">
		<path class="st0" d="M315.2,436.2c-3.6,0-6.2-3.3-6.2-8c0-5.4,2.3-11.6,6.3-16.6c2.5-3.3,6.2-5.5,9.3-5.5c0.9,0,1.6,0.1,2.4,0.4
			c1.2-2.7,1.9-4.1,3.4-7.5l0.1-0.3c2.2-4.7,3.8-7,6.4-7c2,0,3.6,1.7,3.6,3.9c0,1.3-0.4,2.3-1.3,3.7c-1.7,3-3,5.6-5.4,10.8
			c-1.9,4-3.6,8.3-4.8,11.7c-0.4,1.2-0.6,2.1-0.7,2.7c0.1-0.1,0.2-0.2,0.2-0.3c0.5-0.7,1.9-2.7,2.7-4c1.1-1.8,2.1-3.2,3.9-3.2
			c1.6,0,2.9,1.4,2.9,3.2c0,2-2.2,6-4.2,9c-3.1,4.4-5.6,6.3-8.3,6.3c-1.9,0-3.4-0.9-4.2-2.6C319.6,435,317.4,436.2,315.2,436.2z
			 M323.2,415c-0.5,0.3-1.2,1.1-2.3,2.6c-2.1,3.1-3.5,6.8-3.5,9.2c0.3-0.3,0.7-0.8,1.2-1.7c0.7-1.3,1.8-3.7,3.3-7.2L323.2,415z"/>
		<path class="st1" d="M336.9,393.1c1.1,0,2.2,1.1,2.2,2.5c0,0.9-0.3,1.6-1.1,3c-1.8,3.2-3.1,5.9-5.5,10.9c-2,4.3-3.8,8.6-4.8,11.8
			c-0.6,1.7-0.8,2.9-0.8,3.7c0,0.8,0.4,1.4,0.9,1.4c0.5,0,1.2-0.5,1.8-1.2c0.6-0.8,2-2.8,2.9-4.2c1.2-2,1.8-2.5,2.7-2.5
			c0.8,0,1.5,0.8,1.5,1.8c0,1.4-1.7,4.9-3.9,8.2c-2.7,3.9-5,5.7-7.1,5.7c-2.2,0-3.6-1.7-3.7-4.7c-1.7,3.4-4.2,5.5-6.7,5.5
			c-2.9,0-4.8-2.7-4.8-6.6c0-5.1,2.2-11,6-15.8c2.3-3,5.5-5,8.2-5c1.2,0,2.1,0.3,3.1,0.9c1.7-3.8,2.2-5,4.1-9.1
			C334,394.7,335.3,393.1,336.9,393.1 M317,428.5c0.8,0,1.8-0.9,2.8-2.8c0.7-1.3,1.8-3.6,3.4-7.3l2.1-4.8c-0.4-0.3-0.7-0.4-1.1-0.4
			c-1.5,0-2.7,0.9-4.4,3.5c-2.2,3.3-3.8,7.4-3.8,10C316,427.9,316.4,428.5,317,428.5 M336.9,390.3c-3.6,0-5.5,3.4-7.6,7.8l-0.2,0.4
			c-1.3,2.9-2,4.3-2.9,6.4c-0.5-0.1-1-0.1-1.6-0.1c-3.6,0-7.6,2.3-10.4,6.1c-4.1,5.2-6.6,11.8-6.6,17.5c0,5.5,3.1,9.4,7.6,9.4
			c2.1,0,4.2-0.9,6-2.6c1.1,1.2,2.6,1.8,4.4,1.8c4.1,0,7.2-3.7,9.4-6.9c0.5-0.7,4.4-6.6,4.4-9.8c0-2.5-1.9-4.6-4.3-4.6
			c-1.1,0-1.9,0.4-2.6,0.9c0.8-1.9,1.7-3.9,2.6-5.8c2.4-5.2,3.7-7.7,5.4-10.7c0.9-1.6,1.4-2.8,1.4-4.4
			C341.8,392.6,339.6,390.3,336.9,390.3L336.9,390.3z"/>
	</g>
	<g id="XMLID_2185_">
		<path class="st0" d="M383.9,456.6c-4.2,0-7.3-3.1-7.3-7.5c0-3.5,1.7-7,4.9-10c1.1-1,2.5-2,4.7-3.4c0.8-0.5,1.7-0.9,2.9-1.6
			c0,0,0,0,0,0c-1.7,0-3.2-0.9-4.1-2.3c-1.7,1.2-3.4,1.8-5.1,1.8c-1.7,0-3.2-1-4.1-2.6c-1.8,1.9-3.7,2.9-5.7,2.9
			c-1.7,0-3.1-0.8-4.1-2.3c-2.3,2.6-4.3,3.8-6.4,3.8c-1.9,0-3.4-0.9-4.2-2.6c-1.8,2.2-3.9,3.4-6.1,3.4c-3.6,0-6.2-3.3-6.2-8
			c0-5.4,2.3-11.6,6.3-16.6c2.5-3.3,6.2-5.5,9.3-5.5c0.9,0,1.6,0.1,2.4,0.4c1.2-2.7,1.9-4.1,3.4-7.5l0.1-0.3c2.2-4.7,3.8-7,6.4-7
			c2,0,3.6,1.7,3.6,3.9c0,1.3-0.4,2.3-1.3,3.7c-1.7,3-3,5.5-5.4,10.8c-1.9,4-3.6,8.3-4.8,11.7c-0.4,1.2-0.6,2.1-0.7,2.7
			c0.1-0.1,0.2-0.2,0.2-0.3c0.5-0.7,1.9-2.7,2.7-4c0.5-0.8,0.9-1.3,1.2-1.7c0.7-1.7,1.6-3.3,2.6-4.8c3.3-5,6.9-7.6,10.4-7.6
			c3.5,0,6,2.8,6,6.8c0,1.1-0.2,1.9-0.4,2.8c0.5,0.6,0.8,1.2,0.8,2.1c0,1-0.3,1.6-1,2.6c-1.1,1.6-1.6,2.9-1.8,3.6
			c0.5-0.3,1.5-1.3,3.3-4.1c0.9-1.7,2-3.3,3.3-5c4.2-5.4,6.4-6,7.6-6c1.9,0,3.4,1.6,3.4,3.6c0,1.9-0.9,3.1-2.4,4.7
			c-2.7,2.9-4.4,5.2-5.3,6.7c0.3-0.2,0.6-0.5,0.9-0.9c1.6-1.7,4.1-4.8,6.3-7.9c2.5-3.6,2.9-4.1,3.7-4.8c0.6-0.6,1.4-1.2,2.7-1.2
			c2,0,3.6,1.7,3.6,3.7c0,0.8-0.3,1.8-0.7,2.7c-0.2,0.4-0.5,0.9-0.9,1.7l-1,1.9c-0.5,1-1.1,2.2-1.8,3.6c1-1.2,1.8-2.3,2.4-3
			c0.8-1.3,1.7-2.4,3.3-2.4c0.6,0,1.1,0.2,1.5,0.4c-0.4-1.1-0.6-2.2-0.6-3.5c0-3.8,1.7-6.7,5.2-9.2c2.7-1.9,5.4-2.8,8.1-2.8
			c4.4,0,7.4,2.9,7.4,7.3c0,4.7-4.6,10.2-8.6,10.2c-0.4,0-0.9-0.1-1.3-0.2c1.5,2.4,2.2,4.2,2.2,6.3c0,5-4.1,9-9.2,9
			c-3.3,0-6.1-1.6-7.7-4.3c-2.3,2.5-4.8,4.4-8.7,6.8l-0.2,0.1c-0.7,2-2.4,6-3.2,7.9C392.7,452.8,388.7,456.6,383.9,456.6z
			 M388.2,443.5c-0.3,0.2-0.5,0.4-0.7,0.6c-1.8,1.6-2.6,2.9-2.6,3.6C385.2,447.7,386.3,447,388.2,443.5z M357.2,415
			c-0.5,0.3-1.2,1.1-2.3,2.6c-2.1,3.1-3.5,6.8-3.5,9.2c0.3-0.3,0.7-0.8,1.2-1.7c0.7-1.3,1.8-3.7,3.3-7.2L357.2,415z M414.2,423.6
			c0.1,0.2,0.1,0.4,0.2,0.7c0.1,0.5,0.6,1.7,1.6,1.7c0.6,0,1-0.3,1-0.8c0-0.5,0-0.6-2-3.5c-0.2-0.3-0.4-0.6-0.6-0.9
			c0,0.1,0,0.1,0,0.2L414.2,423.6L414.2,423.6z M377.8,415.7c-0.6,0.4-1.6,1.3-2.6,2.9c-1.2,1.9-1.9,4-2.1,5.1
			c0.4-0.3,0.9-0.9,1.5-1.8c0,0,0-0.1,0-0.1c0-0.2-0.1-0.3-0.1-0.5c0-0.6,0.2-1.2,0.7-1.7l1-1.2C377,417.7,377.6,416.4,377.8,415.7z
			 M424.2,410.7c-2,0-4.1,2-4.1,3.4c0,0.4,0.1,0.8,0.3,1.3c0.1-1.3,0.7-2.3,1.8-3.1l1.3-0.8C423.9,411.3,424.2,410.9,424.2,410.7
			C424.2,410.7,424.2,410.7,424.2,410.7z"/>
		<path class="st1" d="M370.9,393.1c1.1,0,2.2,1.1,2.2,2.5c0,0.9-0.3,1.6-1.1,3c-1.8,3.2-3.1,5.9-5.5,10.9c-2,4.3-3.8,8.6-4.8,11.8
			c-0.6,1.7-0.8,2.9-0.8,3.7c0,0.8,0.4,1.4,0.9,1.4c0.5,0,1.2-0.5,1.8-1.2c0.6-0.8,2-2.8,2.9-4.2c0.5-0.8,0.9-1.3,1.2-1.7
			c0.7-1.7,1.5-3.3,2.5-4.8c3-4.5,6.2-6.9,9.2-6.9c2.7,0,4.6,2.1,4.6,5.4c0,1.2-0.2,2-0.6,3.2c0.8,0.8,1,1.2,1,1.7
			c0,0.5-0.1,0.9-0.8,1.7c-1.3,2-2.1,3.8-2.1,4.8c0,0.7,0.4,1.2,1.1,1.2c1.2,0,2.7-1.5,4.9-4.9c0.8-1.6,1.9-3.2,3.2-4.9
			c2.8-3.5,5-5.4,6.5-5.4c1.1,0,2,0.9,2,2.2c0,1.2-0.4,2.1-2,3.7c-3.6,3.8-6.3,7.7-6.3,9.2c0,0.4,0.4,0.8,0.8,0.8
			c0.7,0,2-0.9,3.2-2.2c1.8-2,4.3-5.1,6.4-8.1c2.5-3.5,2.8-4,3.4-4.5c0.6-0.6,1.1-0.9,1.8-0.9c1.2,0,2.2,1.1,2.2,2.3
			c0,0.5-0.2,1.3-0.6,2c-0.3,0.6-1,1.8-1.9,3.6c-1.2,2.2-3.1,6.2-4.8,10l-0.2,0.6c1.3-0.9,2.3-1.8,3.5-3.2c1.8-1.9,3.6-4.1,4.5-5.4
			c0.9-1.4,1.4-1.8,2.1-1.8c0.8,0,1.3,0.6,1.5,1.4c0.2,0.3,0.3,0.6,0.3,0.9l-0.1,2.8c0,0.1,0.1,0.4,0.3,0.9c0.4,1.7,1.6,2.8,3,2.8
			c1.3,0,2.4-0.9,2.4-2.2c0-0.9-0.2-1.3-2.3-4.3c-2-2.8-2.6-4.3-2.6-6.7c0-3.3,1.5-5.9,4.6-8.1c2.4-1.7,4.8-2.5,7.3-2.5
			c3.7,0,6,2.2,6,5.9c0,4-3.9,8.8-7.2,8.8c-1.3,0-2.4-1.1-2.4-2.5c0-0.9,0.4-1.7,1.2-2.2l1.2-0.7c0.8-0.5,1.5-1.4,1.5-2.2
			s-0.6-1.3-1.5-1.3c-2.7,0-5.5,2.5-5.5,4.8c0,1.4,0.5,2.5,2.4,5.1c1.8,2.6,2.6,4.5,2.6,6.5c0,4.1-3.5,7.6-7.8,7.6
			c-3.5,0-6.3-2.2-7.4-5.4c-2.7,3.3-5.3,5.4-9.8,8.1l-0.6,0.4l-0.2,0.4c-0.7,1.9-2.4,6-3.2,8c-3.1,7-6.7,10.6-10.9,10.6
			c-3.4,0-5.9-2.5-5.9-6.1c0-3.1,1.5-6.2,4.5-9c1.1-1,2.5-2,4.5-3.2c1.2-0.7,2.9-1.6,5.7-3.1l1.5-0.7c0.3-0.7,0.5-1.2,1.3-2.9
			c0.7-1.6,1-2.3,1.6-3.8c-2.5,4-5.4,6.3-7.9,6.3c-1.7,0-3.1-1.3-3.5-3.1c-1.9,1.7-3.8,2.6-5.6,2.6c-1.8,0-3.3-1.7-3.3-3.8
			c0-0.2,0-0.4,0-0.7c-2,3.2-4.2,4.8-6.5,4.8c-1.8,0-3.2-1.4-3.8-3.5c-2.5,3.5-4.6,5.1-6.7,5.1c-2.2,0-3.6-1.7-3.7-4.7
			c-1.7,3.4-4.2,5.5-6.7,5.5c-2.9,0-4.8-2.7-4.8-6.6c0-5.1,2.2-11,6-15.8c2.3-3,5.5-5,8.2-5c1.2,0,2.1,0.3,3.1,0.9
			c1.7-3.8,2.2-5,4.1-9.1C368,394.7,369.3,393.1,370.9,393.1 M351.1,428.5c0.8,0,1.8-0.9,2.8-2.8c0.7-1.3,1.8-3.6,3.4-7.3l2.1-4.8
			c-0.4-0.3-0.7-0.4-1.1-0.4c-1.5,0-2.7,0.9-4.4,3.5c-2.2,3.3-3.8,7.4-3.8,10C350,427.9,350.4,428.5,351.1,428.5 M372.6,425.4
			c1,0,1.7-0.7,3.2-2.7c0.1-0.1,0.2-0.3,0.4-0.5c-0.1-0.4-0.2-0.7-0.2-0.8c0-0.3,0.1-0.6,0.3-0.8l1-1.2c1-1.2,2-3.3,2-4.2
			c0-0.7-0.4-1.2-1-1.2c-1.1,0-2.8,1.5-4.3,3.8c-1.3,2.2-2.4,4.9-2.4,6.3C371.7,424.9,372.1,425.4,372.6,425.4 M384.7,449.2
			c1.8,0,3.8-2.7,6.3-8.4c0.1-0.2,0.3-0.6,0.4-1c-2.3,1.3-3.9,2.3-5,3.3c-1.9,1.7-3.1,3.4-3.1,4.7
			C383.4,448.6,384,449.2,384.7,449.2 M370.9,390.3c-3.6,0-5.5,3.4-7.6,7.8l-0.2,0.3c-1.3,2.9-2,4.3-2.9,6.4c-0.5-0.1-1-0.1-1.6-0.1
			c-3.6,0-7.6,2.3-10.4,6.1c-4.1,5.2-6.6,11.8-6.6,17.5c0,5.5,3.1,9.4,7.6,9.4c2.1,0,4.2-0.9,6-2.6c1.1,1.2,2.6,1.8,4.4,1.8
			c2.5,0,4.6-1.4,6.4-3.2c1.2,1,2.6,1.6,4.1,1.6c2,0,3.8-0.7,5.5-2.2c1.1,1.2,2.6,1.9,4.3,1.9c1.6,0,3.2-0.4,4.8-1.3
			c0.3,0.3,0.6,0.6,1,0.8c0,0-0.1,0.1-0.1,0.1c-2.3,1.4-3.8,2.5-4.9,3.5c-3.5,3.3-5.3,7.1-5.3,11c0,5.1,3.7,8.9,8.7,8.9
			c5.4,0,9.9-4.1,13.5-12.2l0,0l0,0c0.7-1.8,2.2-5.4,3-7.5c3.3-2,5.6-3.7,7.7-5.7c2,2.2,4.8,3.5,7.9,3.5c5.8,0,10.6-4.7,10.6-10.4
			c0-1.6-0.3-3.1-1.1-4.8c4.4-0.9,8.8-6.4,8.8-11.4c0-5.2-3.6-8.7-8.8-8.7c-3,0-5.9,1-8.8,3c-2.9,2.1-4.7,4.5-5.5,7.3
			c-0.7-2-2.5-3.4-4.7-3.4c-1.6,0-2.8,0.8-3.6,1.5c-0.4,0.3-0.8,0.7-1.2,1.3c-0.7-1.8-2.4-3.1-4.4-3.1c-2.5,0-5.1,2-8.7,6.5
			c-0.6,0.7-1.1,1.5-1.6,2.2c-0.1-0.3-0.2-0.6-0.4-0.8c0.2-0.8,0.3-1.6,0.3-2.6c0-4.8-3-8.1-7.4-8.1c-3.8,0-7.6,2.6-11.1,7.5
			c0.2-0.5,0.5-1,0.7-1.5c2.4-5.2,3.7-7.7,5.4-10.7c0.9-1.6,1.4-2.8,1.4-4.4C375.9,392.6,373.6,390.3,370.9,390.3L370.9,390.3z"/>
	</g>
</g>
</svg>
